<?xml version="1.0" encoding="UTF-8" standalone="no"?>
<!DOCTYPE svg PUBLIC "-//W3C//DTD SVG 1.1//EN"
 "http://www.w3.org/Graphics/SVG/1.1/DTD/svg11.dtd">
<!-- Generated by graphviz version 2.36.0 (20140111.2315)
 -->
<!-- Title: models_diagram Pages: 1 -->
<svg width="676pt" height="800pt"
 viewBox="0.00 0.00 676.00 800.00" xmlns="http://www.w3.org/2000/svg" xmlns:xlink="http://www.w3.org/1999/xlink">
<g id="graph0" class="graph" transform="scale(1 1) rotate(0) translate(4 796)">
<title>models_diagram</title>
<polygon fill="none" stroke="none" points="-4,4 -4,-796 672,-796 672,4 -4,4"/>
<!-- _diagram_info -->
<g id="node1" class="node"><title>_diagram_info</title>
<text text-anchor="start" x="38" y="-717.6" font-family="Times,serif" font-size="13.00">Models diagram</text>
<text text-anchor="start" x="38" y="-703.6" font-family="Times,serif" font-size="13.00">Date: Feb 24 2016 &#45; 11:30</text>
<text text-anchor="start" x="38" y="-689.6" font-family="Times,serif" font-size="13.00">Migration version: 20160224053310</text>
<text text-anchor="start" x="38" y="-675.6" font-family="Times,serif" font-size="13.00">Generated by RailRoady 1.4.2</text>
<text text-anchor="start" x="38" y="-661.6" font-family="Times,serif" font-size="13.00">http://railroady.prestonlee.com</text>
</g>
<!-- SubscriptionPlan -->
<g id="node2" class="node"><title>SubscriptionPlan</title>
<path fill="none" stroke="black" d="M12,-188.5C12,-188.5 232,-188.5 232,-188.5 238,-188.5 244,-194.5 244,-200.5 244,-200.5 244,-357.5 244,-357.5 244,-363.5 238,-369.5 232,-369.5 232,-369.5 12,-369.5 12,-369.5 6,-369.5 0,-363.5 0,-357.5 0,-357.5 0,-200.5 0,-200.5 0,-194.5 6,-188.5 12,-188.5"/>
<text text-anchor="middle" x="122" y="-354.3" font-family="Times,serif" font-size="14.00">SubscriptionPlan</text>
<polyline fill="none" stroke="black" points="0,-346.5 244,-346.5 "/>
<text text-anchor="start" x="8" y="-331.3" font-family="Times,serif" font-size="14.00">id :integer</text>
<text text-anchor="start" x="8" y="-316.3" font-family="Times,serif" font-size="14.00">group_detail_id :integer</text>
<text text-anchor="start" x="8" y="-301.3" font-family="Times,serif" font-size="14.00">channel_detail_id :integer</text>
<text text-anchor="start" x="8" y="-286.3" font-family="Times,serif" font-size="14.00">max_hits_allowed :integer</text>
<text text-anchor="start" x="8" y="-271.3" font-family="Times,serif" font-size="14.00">auto_renewal :boolean</text>
<text text-anchor="start" x="8" y="-256.3" font-family="Times,serif" font-size="14.00">start_date :timestamp without time zone</text>
<text text-anchor="start" x="8" y="-241.3" font-family="Times,serif" font-size="14.00">duration :integer</text>
<text text-anchor="start" x="8" y="-226.3" font-family="Times,serif" font-size="14.00">active :boolean</text>
<text text-anchor="start" x="8" y="-211.3" font-family="Times,serif" font-size="14.00">created_at :timestamp without time zone</text>
<text text-anchor="start" x="8" y="-196.3" font-family="Times,serif" font-size="14.00">updated_at :timestamp without time zone</text>
</g>
<!-- PlanConsumption -->
<g id="node6" class="node"><title>PlanConsumption</title>
<path fill="none" stroke="black" d="M412,-0.5C412,-0.5 656,-0.5 656,-0.5 662,-0.5 668,-6.5 668,-12.5 668,-12.5 668,-139.5 668,-139.5 668,-145.5 662,-151.5 656,-151.5 656,-151.5 412,-151.5 412,-151.5 406,-151.5 400,-145.5 400,-139.5 400,-139.5 400,-12.5 400,-12.5 400,-6.5 406,-0.5 412,-0.5"/>
<text text-anchor="middle" x="534" y="-136.3" font-family="Times,serif" font-size="14.00">PlanConsumption</text>
<polyline fill="none" stroke="black" points="400,-128.5 668,-128.5 "/>
<text text-anchor="start" x="408" y="-113.3" font-family="Times,serif" font-size="14.00">id :integer</text>
<text text-anchor="start" x="408" y="-98.3" font-family="Times,serif" font-size="14.00">subscription_plan_id :integer</text>
<text text-anchor="start" x="408" y="-83.3" font-family="Times,serif" font-size="14.00">plan_end_date :timestamp without time zone</text>
<text text-anchor="start" x="408" y="-68.3" font-family="Times,serif" font-size="14.00">hits_consumed :integer</text>
<text text-anchor="start" x="408" y="-53.3" font-family="Times,serif" font-size="14.00">exhausted :boolean</text>
<text text-anchor="start" x="408" y="-38.3" font-family="Times,serif" font-size="14.00">exhausted_date :timestamp without time zone</text>
<text text-anchor="start" x="408" y="-23.3" font-family="Times,serif" font-size="14.00">created_at :timestamp without time zone</text>
<text text-anchor="start" x="408" y="-8.3" font-family="Times,serif" font-size="14.00">updated_at :timestamp without time zone</text>
</g>
<!-- SubscriptionPlan&#45;&gt;PlanConsumption -->
<g id="edge1" class="edge"><title>SubscriptionPlan&#45;&gt;PlanConsumption</title>
<path fill="none" stroke="#7987b2" d="M251.354,-188.88C251.903,-188.585 252.452,-188.292 253,-188 296.229,-164.993 345.299,-144.004 390.202,-126.621"/>
<ellipse fill="none" stroke="#7987b2" cx="247.703" cy="-190.888" rx="4.00002" ry="4.00002"/>
<polygon fill="#7987b2" stroke="#7987b2" points="390.381,-126.553 401.33,-127.168 395.049,-124.76 399.717,-122.967 399.717,-122.967 399.717,-122.967 395.049,-124.76 398.103,-118.767 390.381,-126.553 390.381,-126.553"/>
</g>
<!-- ChannelDetail -->
<g id="node3" class="node"><title>ChannelDetail</title>
<path fill="none" stroke="black" d="M274,-595C274,-595 494,-595 494,-595 500,-595 506,-601 506,-607 506,-607 506,-779 506,-779 506,-785 500,-791 494,-791 494,-791 274,-791 274,-791 268,-791 262,-785 262,-779 262,-779 262,-607 262,-607 262,-601 268,-595 274,-595"/>
<text text-anchor="middle" x="384" y="-775.8" font-family="Times,serif" font-size="14.00">ChannelDetail</text>
<polyline fill="none" stroke="black" points="262,-768 506,-768 "/>
<text text-anchor="start" x="270" y="-752.8" font-family="Times,serif" font-size="14.00">id :integer</text>
<text text-anchor="start" x="270" y="-737.8" font-family="Times,serif" font-size="14.00">channel_name :character varying</text>
<text text-anchor="start" x="270" y="-722.8" font-family="Times,serif" font-size="14.00">channgel_data_field :character varying</text>
<text text-anchor="start" x="270" y="-707.8" font-family="Times,serif" font-size="14.00">channel_unique_key :text</text>
<text text-anchor="start" x="270" y="-692.8" font-family="Times,serif" font-size="14.00">channel_code :character varying</text>
<text text-anchor="start" x="270" y="-677.8" font-family="Times,serif" font-size="14.00">has_product_id :boolean</text>
<text text-anchor="start" x="270" y="-662.8" font-family="Times,serif" font-size="14.00">has_city :boolean</text>
<text text-anchor="start" x="270" y="-647.8" font-family="Times,serif" font-size="14.00">icon :text</text>
<text text-anchor="start" x="270" y="-632.8" font-family="Times,serif" font-size="14.00">business_model :character varying</text>
<text text-anchor="start" x="270" y="-617.8" font-family="Times,serif" font-size="14.00">created_at :timestamp without time zone</text>
<text text-anchor="start" x="270" y="-602.8" font-family="Times,serif" font-size="14.00">updated_at :timestamp without time zone</text>
</g>
<!-- ChannelDetail&#45;&gt;SubscriptionPlan -->
<g id="edge2" class="edge"><title>ChannelDetail&#45;&gt;SubscriptionPlan</title>
<path fill="none" stroke="#0abaf0" d="M276.479,-588.462C268.11,-578.514 260.148,-568.289 253,-558 214.509,-502.601 182.084,-434.112 159.123,-378.977"/>
<ellipse fill="none" stroke="#0abaf0" cx="279.141" cy="-591.577" rx="4.00002" ry="4.00002"/>
<polygon fill="#0abaf0" stroke="#0abaf0" points="159.046,-378.792 159.393,-367.831 157.14,-374.169 155.233,-369.547 155.233,-369.547 155.233,-369.547 157.14,-374.169 151.073,-371.263 159.046,-378.792 159.046,-378.792"/>
</g>
<!-- GroupDetail -->
<g id="node4" class="node"><title>GroupDetail</title>
<path fill="none" stroke="black" d="M274,-406.5C274,-406.5 494,-406.5 494,-406.5 500,-406.5 506,-412.5 506,-418.5 506,-418.5 506,-545.5 506,-545.5 506,-551.5 500,-557.5 494,-557.5 494,-557.5 274,-557.5 274,-557.5 268,-557.5 262,-551.5 262,-545.5 262,-545.5 262,-418.5 262,-418.5 262,-412.5 268,-406.5 274,-406.5"/>
<text text-anchor="middle" x="384" y="-542.3" font-family="Times,serif" font-size="14.00">GroupDetail</text>
<polyline fill="none" stroke="black" points="262,-534.5 506,-534.5 "/>
<text text-anchor="start" x="270" y="-519.3" font-family="Times,serif" font-size="14.00">id :integer</text>
<text text-anchor="start" x="270" y="-504.3" font-family="Times,serif" font-size="14.00">name :character varying</text>
<text text-anchor="start" x="270" y="-489.3" font-family="Times,serif" font-size="14.00">start_date :date</text>
<text text-anchor="start" x="270" y="-474.3" font-family="Times,serif" font-size="14.00">end_date :date</text>
<text text-anchor="start" x="270" y="-459.3" font-family="Times,serif" font-size="14.00">header_json :jsonb</text>
<text text-anchor="start" x="270" y="-444.3" font-family="Times,serif" font-size="14.00">api_subscription :boolean</text>
<text text-anchor="start" x="270" y="-429.3" font-family="Times,serif" font-size="14.00">created_at :timestamp without time zone</text>
<text text-anchor="start" x="270" y="-414.3" font-family="Times,serif" font-size="14.00">updated_at :timestamp without time zone</text>
</g>
<!-- ChannelDetail&#45;&gt;GroupDetail -->
<g id="edge3" class="edge"><title>ChannelDetail&#45;&gt;GroupDetail</title>
<path fill="none" stroke="#2608c3" d="M384,-584.594C384,-579.062 384,-573.541 384,-568.092"/>
<polygon fill="#2608c3" stroke="#2608c3" points="384,-584.842 379.5,-594.842 384,-589.842 384,-594.842 384,-594.842 384,-594.842 384,-589.842 388.5,-594.842 384,-584.842 384,-584.842"/>
<polygon fill="#2608c3" stroke="#2608c3" points="384,-567.721 388.5,-557.721 384,-562.721 384,-557.721 384,-557.721 384,-557.721 384,-562.721 379.5,-557.721 384,-567.721 384,-567.721"/>
</g>
<!-- ChannelDetail&#45;&gt;PlanConsumption -->
<g id="edge4" class="edge"><title>ChannelDetail&#45;&gt;PlanConsumption</title>
<path fill="none" stroke="#c1da7a" d="M497.389,-586.752C504.011,-577.497 509.998,-567.877 515,-558 578.878,-431.857 566.622,-262.356 550.964,-161.904"/>
<polygon fill="#c1da7a" stroke="#c1da7a" points="497.381,-586.763 487.804,-592.105 494.398,-590.776 491.415,-594.789 491.415,-594.789 491.415,-594.789 494.398,-590.776 495.027,-597.474 497.381,-586.763 497.381,-586.763"/>
<polygon fill="#c1da7a" stroke="#c1da7a" points="550.927,-161.677 553.784,-151.09 550.134,-156.74 549.341,-151.803 549.341,-151.803 549.341,-151.803 550.134,-156.74 544.898,-152.517 550.927,-161.677 550.927,-161.677"/>
</g>
<!-- GroupDetail&#45;&gt;SubscriptionPlan -->
<g id="edge6" class="edge"><title>GroupDetail&#45;&gt;SubscriptionPlan</title>
<path fill="none" stroke="#dfd365" d="M280.201,-401.368C269.306,-393.009 258.147,-384.449 247.046,-375.932"/>
<ellipse fill="none" stroke="#dfd365" cx="283.64" cy="-404.006" rx="4.00002" ry="4.00002"/>
<polygon fill="#dfd365" stroke="#dfd365" points="246.912,-375.829 241.716,-366.172 242.944,-372.786 238.977,-369.742 238.977,-369.742 238.977,-369.742 242.944,-372.786 236.238,-373.313 246.912,-375.829 246.912,-375.829"/>
</g>
<!-- GroupAuthenticationDetail -->
<g id="node5" class="node"><title>GroupAuthenticationDetail</title>
<path fill="none" stroke="black" d="M274,-196C274,-196 494,-196 494,-196 500,-196 506,-202 506,-208 506,-208 506,-350 506,-350 506,-356 500,-362 494,-362 494,-362 274,-362 274,-362 268,-362 262,-356 262,-350 262,-350 262,-208 262,-208 262,-202 268,-196 274,-196"/>
<text text-anchor="middle" x="384" y="-346.8" font-family="Times,serif" font-size="14.00">GroupAuthenticationDetail</text>
<polyline fill="none" stroke="black" points="262,-339 506,-339 "/>
<text text-anchor="start" x="270" y="-323.8" font-family="Times,serif" font-size="14.00">id :integer</text>
<text text-anchor="start" x="270" y="-308.8" font-family="Times,serif" font-size="14.00">user_id :character varying</text>
<text text-anchor="start" x="270" y="-293.8" font-family="Times,serif" font-size="14.00">secret_key :character varying</text>
<text text-anchor="start" x="270" y="-278.8" font-family="Times,serif" font-size="14.00">authorized_urls :text</text>
<text text-anchor="start" x="270" y="-263.8" font-family="Times,serif" font-size="14.00">group_detail_id :integer</text>
<text text-anchor="start" x="270" y="-248.8" font-family="Times,serif" font-size="14.00">email :character varying</text>
<text text-anchor="start" x="270" y="-233.8" font-family="Times,serif" font-size="14.00">created_at :timestamp without time zone</text>
<text text-anchor="start" x="270" y="-218.8" font-family="Times,serif" font-size="14.00">updated_at :timestamp without time zone</text>
<text text-anchor="start" x="270" y="-203.8" font-family="Times,serif" font-size="14.00">max_hits_allowed :integer</text>
</g>
<!-- GroupDetail&#45;&gt;GroupAuthenticationDetail -->
<g id="edge5" class="edge"><title>GroupDetail&#45;&gt;GroupAuthenticationDetail</title>
<path fill="none" stroke="#9d3f2e" d="M384,-398.262C384,-389.053 384,-379.64 384,-370.343"/>
<ellipse fill="none" stroke="#9d3f2e" cx="384" cy="-402.441" rx="4" ry="4"/>
<ellipse fill="#9d3f2e" stroke="#9d3f2e" cx="384" cy="-366.211" rx="4" ry="4"/>
</g>
<!-- GroupDetail&#45;&gt;PlanConsumption -->
<g id="edge7" class="edge"><title>GroupDetail&#45;&gt;PlanConsumption</title>
<path fill="none" stroke="#da857d" d="M496.177,-398.551C503.474,-389.627 509.921,-380.091 515,-370 547.455,-305.518 549.817,-222.715 545.448,-161.593"/>
<polygon fill="#da857d" stroke="#da857d" points="496.085,-398.658 486.149,-403.298 492.822,-402.447 489.558,-406.235 489.558,-406.235 489.558,-406.235 492.822,-402.447 492.968,-409.172 496.085,-398.658 496.085,-398.658"/>
<polygon fill="#da857d" stroke="#da857d" points="545.446,-161.562 549.146,-151.239 545.053,-156.577 544.66,-151.593 544.66,-151.593 544.66,-151.593 545.053,-156.577 540.174,-151.947 545.446,-161.562 545.446,-161.562"/>
</g>
</g>
</svg>
