<?xml version="1.0" encoding="UTF-8" standalone="no"?>
<!DOCTYPE svg PUBLIC "-//W3C//DTD SVG 1.1//EN"
 "http://www.w3.org/Graphics/SVG/1.1/DTD/svg11.dtd">
<!-- Generated by graphviz version 2.36.0 (20140111.2315)
 -->
<!-- Title: models_diagram Pages: 1 -->
<svg width="741pt" height="470pt"
 viewBox="0.00 0.00 741.00 470.00" xmlns="http://www.w3.org/2000/svg" xmlns:xlink="http://www.w3.org/1999/xlink">
<g id="graph0" class="graph" transform="scale(1 1) rotate(0) translate(4 466)">
<title>models_diagram</title>
<polygon fill="none" stroke="none" points="-4,4 -4,-466 737,-466 737,4 -4,4"/>
<!-- _diagram_info -->
<g id="node1" class="node"><title>_diagram_info</title>
<text text-anchor="start" x="8" y="-387.6" font-family="Times,serif" font-size="13.00">Models diagram</text>
<text text-anchor="start" x="8" y="-373.6" font-family="Times,serif" font-size="13.00">Date: Feb 24 2016 &#45; 14:23</text>
<text text-anchor="start" x="8" y="-359.6" font-family="Times,serif" font-size="13.00">Migration version: 20160224081246</text>
<text text-anchor="start" x="8" y="-345.6" font-family="Times,serif" font-size="13.00">Generated by RailRoady 1.4.2</text>
<text text-anchor="start" x="8" y="-331.6" font-family="Times,serif" font-size="13.00">http://railroady.prestonlee.com</text>
</g>
<!-- SubscriptionPlan -->
<g id="node2" class="node"><title>SubscriptionPlan</title>
<path fill="none" stroke="black" d="M239,-1C239,-1 459,-1 459,-1 465,-1 471,-7 471,-13 471,-13 471,-215 471,-215 471,-221 465,-227 459,-227 459,-227 239,-227 239,-227 233,-227 227,-221 227,-215 227,-215 227,-13 227,-13 227,-7 233,-1 239,-1"/>
<text text-anchor="middle" x="349" y="-211.8" font-family="Times,serif" font-size="14.00">SubscriptionPlan</text>
<polyline fill="none" stroke="black" points="227,-204 471,-204 "/>
<text text-anchor="start" x="235" y="-188.8" font-family="Times,serif" font-size="14.00">id :integer</text>
<text text-anchor="start" x="235" y="-173.8" font-family="Times,serif" font-size="14.00">group_detail_id :integer</text>
<text text-anchor="start" x="235" y="-158.8" font-family="Times,serif" font-size="14.00">channel_ids :text</text>
<text text-anchor="start" x="235" y="-143.8" font-family="Times,serif" font-size="14.00">start_date :jsonb</text>
<text text-anchor="start" x="235" y="-128.8" font-family="Times,serif" font-size="14.00">end_date :jsonb</text>
<text text-anchor="start" x="235" y="-113.8" font-family="Times,serif" font-size="14.00">opted_distributed_plan :boolean</text>
<text text-anchor="start" x="235" y="-98.8" font-family="Times,serif" font-size="14.00">max_hits_allowed :jsonb</text>
<text text-anchor="start" x="235" y="-83.8" font-family="Times,serif" font-size="14.00">auto_renewal :boolean</text>
<text text-anchor="start" x="235" y="-68.8" font-family="Times,serif" font-size="14.00">exhausted :jsonb</text>
<text text-anchor="start" x="235" y="-53.8" font-family="Times,serif" font-size="14.00">exhausted_date :jsonb</text>
<text text-anchor="start" x="235" y="-38.8" font-family="Times,serif" font-size="14.00">hits_consumed :jsonb</text>
<text text-anchor="start" x="235" y="-23.8" font-family="Times,serif" font-size="14.00">created_at :timestamp without time zone</text>
<text text-anchor="start" x="235" y="-8.8" font-family="Times,serif" font-size="14.00">updated_at :timestamp without time zone</text>
</g>
<!-- ChannelDetail -->
<g id="node3" class="node"><title>ChannelDetail</title>
<path fill="none" stroke="black" d="M512.5,-280C512.5,-280 709.5,-280 709.5,-280 715.5,-280 721.5,-286 721.5,-292 721.5,-292 721.5,-434 721.5,-434 721.5,-440 715.5,-446 709.5,-446 709.5,-446 512.5,-446 512.5,-446 506.5,-446 500.5,-440 500.5,-434 500.5,-434 500.5,-292 500.5,-292 500.5,-286 506.5,-280 512.5,-280"/>
<text text-anchor="middle" x="611" y="-430.8" font-family="Times,serif" font-size="14.00">ChannelDetail</text>
<polyline fill="none" stroke="black" points="500.5,-423 721.5,-423 "/>
<text text-anchor="start" x="508.5" y="-407.8" font-family="Times,serif" font-size="14.00">id :integer</text>
<text text-anchor="start" x="508.5" y="-392.8" font-family="Times,serif" font-size="14.00">channel_name :character varying</text>
<text text-anchor="start" x="508.5" y="-377.8" font-family="Times,serif" font-size="14.00">channel_data_field :character varying</text>
<text text-anchor="start" x="508.5" y="-362.8" font-family="Times,serif" font-size="14.00">channel_unique_key :text</text>
<text text-anchor="start" x="508.5" y="-347.8" font-family="Times,serif" font-size="14.00">channel_code :character varying</text>
<text text-anchor="start" x="508.5" y="-332.8" font-family="Times,serif" font-size="14.00">has_product_id :boolean</text>
<text text-anchor="start" x="508.5" y="-317.8" font-family="Times,serif" font-size="14.00">has_city :boolean</text>
<text text-anchor="start" x="508.5" y="-302.8" font-family="Times,serif" font-size="14.00">icon :text</text>
<text text-anchor="start" x="508.5" y="-287.8" font-family="Times,serif" font-size="14.00">business_model :character varying</text>
</g>
<!-- ApiStat -->
<g id="node5" class="node"><title>ApiStat</title>
<path fill="none" stroke="black" d="M501,-38.5C501,-38.5 721,-38.5 721,-38.5 727,-38.5 733,-44.5 733,-50.5 733,-50.5 733,-177.5 733,-177.5 733,-183.5 727,-189.5 721,-189.5 721,-189.5 501,-189.5 501,-189.5 495,-189.5 489,-183.5 489,-177.5 489,-177.5 489,-50.5 489,-50.5 489,-44.5 495,-38.5 501,-38.5"/>
<text text-anchor="middle" x="611" y="-174.3" font-family="Times,serif" font-size="14.00">ApiStat</text>
<polyline fill="none" stroke="black" points="489,-166.5 733,-166.5 "/>
<text text-anchor="start" x="497" y="-151.3" font-family="Times,serif" font-size="14.00">id :integer</text>
<text text-anchor="start" x="497" y="-136.3" font-family="Times,serif" font-size="14.00">group_detail_id :integer</text>
<text text-anchor="start" x="497" y="-121.3" font-family="Times,serif" font-size="14.00">channel_detail_id :integer</text>
<text text-anchor="start" x="497" y="-106.3" font-family="Times,serif" font-size="14.00">SKU_id :bigint</text>
<text text-anchor="start" x="497" y="-91.3" font-family="Times,serif" font-size="14.00">version :integer</text>
<text text-anchor="start" x="497" y="-76.3" font-family="Times,serif" font-size="14.00">IP :inet</text>
<text text-anchor="start" x="497" y="-61.3" font-family="Times,serif" font-size="14.00">created_at :timestamp without time zone</text>
<text text-anchor="start" x="497" y="-46.3" font-family="Times,serif" font-size="14.00">updated_at :timestamp without time zone</text>
</g>
<!-- ChannelDetail&#45;&gt;ApiStat -->
<g id="edge1" class="edge"><title>ChannelDetail&#45;&gt;ApiStat</title>
<path fill="none" stroke="#555d6f" d="M611,-271.498C611,-248.108 611,-223.014 611,-199.921"/>
<ellipse fill="none" stroke="#555d6f" cx="611" cy="-275.753" rx="4" ry="4"/>
<polygon fill="#555d6f" stroke="#555d6f" points="611,-199.813 615.5,-189.812 611,-194.813 611,-189.813 611,-189.813 611,-189.813 611,-194.813 606.5,-189.813 611,-199.813 611,-199.813"/>
</g>
<!-- GroupDetail -->
<g id="node4" class="node"><title>GroupDetail</title>
<path fill="none" stroke="black" d="M244,-265C244,-265 464,-265 464,-265 470,-265 476,-271 476,-277 476,-277 476,-449 476,-449 476,-455 470,-461 464,-461 464,-461 244,-461 244,-461 238,-461 232,-455 232,-449 232,-449 232,-277 232,-277 232,-271 238,-265 244,-265"/>
<text text-anchor="middle" x="354" y="-445.8" font-family="Times,serif" font-size="14.00">GroupDetail</text>
<polyline fill="none" stroke="black" points="232,-438 476,-438 "/>
<text text-anchor="start" x="240" y="-422.8" font-family="Times,serif" font-size="14.00">id :integer</text>
<text text-anchor="start" x="240" y="-407.8" font-family="Times,serif" font-size="14.00">name :character varying</text>
<text text-anchor="start" x="240" y="-392.8" font-family="Times,serif" font-size="14.00">start_date :date</text>
<text text-anchor="start" x="240" y="-377.8" font-family="Times,serif" font-size="14.00">end_date :date</text>
<text text-anchor="start" x="240" y="-362.8" font-family="Times,serif" font-size="14.00">header_json :jsonb</text>
<text text-anchor="start" x="240" y="-347.8" font-family="Times,serif" font-size="14.00">user_id :character varying</text>
<text text-anchor="start" x="240" y="-332.8" font-family="Times,serif" font-size="14.00">secret_key :character varying</text>
<text text-anchor="start" x="240" y="-317.8" font-family="Times,serif" font-size="14.00">authorized_urls :text</text>
<text text-anchor="start" x="240" y="-302.8" font-family="Times,serif" font-size="14.00">email :character varying</text>
<text text-anchor="start" x="240" y="-287.8" font-family="Times,serif" font-size="14.00">created_at :timestamp without time zone</text>
<text text-anchor="start" x="240" y="-272.8" font-family="Times,serif" font-size="14.00">updated_at :timestamp without time zone</text>
</g>
<!-- GroupDetail&#45;&gt;SubscriptionPlan -->
<g id="edge2" class="edge"><title>GroupDetail&#45;&gt;SubscriptionPlan</title>
<path fill="none" stroke="#9c5523" d="M351.867,-256.625C351.726,-249.651 351.583,-242.599 351.44,-235.559"/>
<ellipse fill="none" stroke="#9c5523" cx="351.95" cy="-260.734" rx="4" ry="4"/>
<ellipse fill="#9c5523" stroke="#9c5523" cx="351.354" cy="-231.306" rx="4" ry="4"/>
</g>
<!-- GroupDetail&#45;&gt;ApiStat -->
<g id="edge3" class="edge"><title>GroupDetail&#45;&gt;ApiStat</title>
<path fill="none" stroke="#3cddd4" d="M461.014,-259.15C482.706,-238.302 505.238,-216.647 526.043,-196.651"/>
<ellipse fill="none" stroke="#3cddd4" cx="458.088" cy="-261.962" rx="4.00002" ry="4.00002"/>
<polygon fill="#3cddd4" stroke="#3cddd4" points="526.116,-196.581 536.444,-192.896 529.721,-193.117 533.326,-189.652 533.326,-189.652 533.326,-189.652 529.721,-193.117 530.207,-186.408 526.116,-196.581 526.116,-196.581"/>
</g>
</g>
</svg>
