<?xml version="1.0" encoding="UTF-8" standalone="no"?>
<!DOCTYPE svg PUBLIC "-//W3C//DTD SVG 1.1//EN"
 "http://www.w3.org/Graphics/SVG/1.1/DTD/svg11.dtd">
<!-- Generated by graphviz version 2.36.0 (20140111.2315)
 -->
<!-- Title: models_diagram Pages: 1 -->
<svg width="511pt" height="302pt"
 viewBox="0.00 0.00 511.00 302.00" xmlns="http://www.w3.org/2000/svg" xmlns:xlink="http://www.w3.org/1999/xlink">
<g id="graph0" class="graph" transform="scale(1 1) rotate(0) translate(4 298)">
<title>models_diagram</title>
<polygon fill="none" stroke="none" points="-4,4 -4,-298 507,-298 507,4 -4,4"/>
<!-- _diagram_info -->
<g id="node1" class="node"><title>_diagram_info</title>
<text text-anchor="start" x="8" y="-279.6" font-family="Times,serif" font-size="13.00">Models diagram</text>
<text text-anchor="start" x="8" y="-265.6" font-family="Times,serif" font-size="13.00">Date: Feb 24 2016 &#45; 11:30</text>
<text text-anchor="start" x="8" y="-251.6" font-family="Times,serif" font-size="13.00">Migration version: 20160224053310</text>
<text text-anchor="start" x="8" y="-237.6" font-family="Times,serif" font-size="13.00">Generated by RailRoady 1.4.2</text>
<text text-anchor="start" x="8" y="-223.6" font-family="Times,serif" font-size="13.00">http://railroady.prestonlee.com</text>
</g>
<!-- SubscriptionPlan -->
<g id="node2" class="node"><title>SubscriptionPlan</title>
<ellipse fill="none" stroke="black" cx="99" cy="-90" rx="70.2668" ry="18"/>
<text text-anchor="middle" x="99" y="-86.3" font-family="Times,serif" font-size="14.00">SubscriptionPlan</text>
</g>
<!-- PlanConsumption -->
<g id="node6" class="node"><title>PlanConsumption</title>
<ellipse fill="none" stroke="black" cx="429" cy="-18" rx="74.1402" ry="18"/>
<text text-anchor="middle" x="429" y="-14.3" font-family="Times,serif" font-size="14.00">PlanConsumption</text>
</g>
<!-- SubscriptionPlan&#45;&gt;PlanConsumption -->
<g id="edge1" class="edge"><title>SubscriptionPlan&#45;&gt;PlanConsumption</title>
<path fill="none" stroke="#93602c" d="M158.952,-76.0736C165.381,-74.695 171.826,-73.3162 178,-72 241.5,-58.4635 314.074,-43.157 364.795,-32.486"/>
<ellipse fill="none" stroke="#93602c" cx="154.749" cy="-76.9757" rx="4.00001" ry="4.00001"/>
<polygon fill="#93602c" stroke="#93602c" points="364.853,-32.4739 375.565,-34.8191 369.746,-31.4447 374.639,-30.4155 374.639,-30.4155 374.639,-30.4155 369.746,-31.4447 373.713,-26.0119 364.853,-32.4739 364.853,-32.4739"/>
</g>
<!-- ChannelDetail -->
<g id="node3" class="node"><title>ChannelDetail</title>
<ellipse fill="none" stroke="black" cx="294" cy="-255" rx="61.6163" ry="18"/>
<text text-anchor="middle" x="294" y="-251.3" font-family="Times,serif" font-size="14.00">ChannelDetail</text>
</g>
<!-- ChannelDetail&#45;&gt;SubscriptionPlan -->
<g id="edge2" class="edge"><title>ChannelDetail&#45;&gt;SubscriptionPlan</title>
<path fill="none" stroke="#5ac233" d="M268.093,-232.345C231.334,-201.618 164.328,-145.608 126.643,-114.106"/>
<ellipse fill="none" stroke="#5ac233" cx="271.521" cy="-235.21" rx="4.00002" ry="4.00002"/>
<polygon fill="#5ac233" stroke="#5ac233" points="126.294,-113.815 121.507,-103.949 122.457,-110.608 118.621,-107.401 118.621,-107.401 118.621,-107.401 122.457,-110.608 115.735,-110.854 126.294,-113.815 126.294,-113.815"/>
</g>
<!-- GroupDetail -->
<g id="node4" class="node"><title>GroupDetail</title>
<ellipse fill="none" stroke="black" cx="294" cy="-162" rx="54.3924" ry="18"/>
<text text-anchor="middle" x="294" y="-158.3" font-family="Times,serif" font-size="14.00">GroupDetail</text>
</g>
<!-- ChannelDetail&#45;&gt;GroupDetail -->
<g id="edge3" class="edge"><title>ChannelDetail&#45;&gt;GroupDetail</title>
<path fill="none" stroke="#90b030" d="M294,-226.549C294,-215.083 294,-201.792 294,-190.339"/>
<polygon fill="#90b030" stroke="#90b030" points="294,-226.884 289.5,-236.884 294,-231.884 294,-236.884 294,-236.884 294,-236.884 294,-231.884 298.5,-236.884 294,-226.884 294,-226.884"/>
<polygon fill="#90b030" stroke="#90b030" points="294,-190.04 298.5,-180.04 294,-185.04 294,-180.04 294,-180.04 294,-180.04 294,-185.04 289.5,-180.04 294,-190.04 294,-190.04"/>
</g>
<!-- ChannelDetail&#45;&gt;PlanConsumption -->
<g id="edge4" class="edge"><title>ChannelDetail&#45;&gt;PlanConsumption</title>
<path fill="none" stroke="#3000f9" d="M325.337,-232.206C358.791,-206.826 409.836,-161.483 431,-108 438.796,-88.2982 437.669,-64.1741 434.939,-46.0144"/>
<polygon fill="#3000f9" stroke="#3000f9" points="325.267,-232.258 314.556,-234.609 321.253,-235.24 317.24,-238.221 317.24,-238.221 317.24,-238.221 321.253,-235.24 319.923,-241.834 325.267,-232.258 325.267,-232.258"/>
<polygon fill="#3000f9" stroke="#3000f9" points="434.927,-45.9402 437.635,-35.3142 434.065,-41.0151 433.203,-36.0899 433.203,-36.0899 433.203,-36.0899 434.065,-41.0151 428.77,-36.8656 434.927,-45.9402 434.927,-45.9402"/>
</g>
<!-- GroupDetail&#45;&gt;SubscriptionPlan -->
<g id="edge6" class="edge"><title>GroupDetail&#45;&gt;SubscriptionPlan</title>
<path fill="none" stroke="#2abad9" d="M250.839,-145.506C220.288,-134.539 179.281,-119.819 147.584,-108.44"/>
<ellipse fill="none" stroke="#2abad9" cx="254.922" cy="-146.972" rx="4.00001" ry="4.00001"/>
<polygon fill="#2abad9" stroke="#2abad9" points="147.479,-108.403 139.588,-100.789 142.773,-106.714 138.067,-105.024 138.067,-105.024 138.067,-105.024 142.773,-106.714 136.547,-109.26 147.479,-108.403 147.479,-108.403"/>
</g>
<!-- GroupAuthenticationDetail -->
<g id="node5" class="node"><title>GroupAuthenticationDetail</title>
<ellipse fill="none" stroke="black" cx="294" cy="-90" rx="106.386" ry="18"/>
<text text-anchor="middle" x="294" y="-86.3" font-family="Times,serif" font-size="14.00">GroupAuthenticationDetail</text>
</g>
<!-- GroupDetail&#45;&gt;GroupAuthenticationDetail -->
<g id="edge5" class="edge"><title>GroupDetail&#45;&gt;GroupAuthenticationDetail</title>
<path fill="none" stroke="#3df5fd" d="M294,-135.64C294,-129.348 294,-122.605 294,-116.316"/>
<ellipse fill="none" stroke="#3df5fd" cx="294" cy="-139.697" rx="4" ry="4"/>
<ellipse fill="#3df5fd" stroke="#3df5fd" cx="294" cy="-112.104" rx="4" ry="4"/>
</g>
<!-- GroupDetail&#45;&gt;PlanConsumption -->
<g id="edge7" class="edge"><title>GroupDetail&#45;&gt;PlanConsumption</title>
<path fill="none" stroke="#47492c" d="M347.31,-147.81C369.413,-139.766 393.467,-127.209 409,-108 422.966,-90.7288 427.633,-65.6681 428.997,-46.5373"/>
<polygon fill="#47492c" stroke="#47492c" points="347.128,-147.872 336.212,-146.831 342.394,-149.482 337.661,-151.092 337.661,-151.092 337.661,-151.092 342.394,-149.482 339.109,-155.352 347.128,-147.872 347.128,-147.872"/>
<polygon fill="#47492c" stroke="#47492c" points="429.006,-46.3245 433.954,-36.5383 429.233,-41.3297 429.459,-36.3348 429.459,-36.3348 429.459,-36.3348 429.233,-41.3297 424.963,-36.1312 429.006,-46.3245 429.006,-46.3245"/>
</g>
</g>
</svg>
