<?xml version="1.0" encoding="UTF-8" standalone="no"?>
<!DOCTYPE svg PUBLIC "-//W3C//DTD SVG 1.1//EN"
 "http://www.w3.org/Graphics/SVG/1.1/DTD/svg11.dtd">
<!-- Generated by graphviz version 2.36.0 (20140111.2315)
 -->
<!-- Title: models_diagram Pages: 1 -->
<svg width="871pt" height="800pt"
 viewBox="0.00 0.00 871.00 800.00" xmlns="http://www.w3.org/2000/svg" xmlns:xlink="http://www.w3.org/1999/xlink">
<g id="graph0" class="graph" transform="scale(1 1) rotate(0) translate(4 796)">
<title>models_diagram</title>
<polygon fill="none" stroke="none" points="-4,4 -4,-796 867,-796 867,4 -4,4"/>
<!-- _diagram_info -->
<g id="node1" class="node"><title>_diagram_info</title>
<text text-anchor="start" x="105" y="-717.6" font-family="Times,serif" font-size="13.00">Models diagram</text>
<text text-anchor="start" x="105" y="-703.6" font-family="Times,serif" font-size="13.00">Date: Feb 22 2016 &#45; 18:35</text>
<text text-anchor="start" x="105" y="-689.6" font-family="Times,serif" font-size="13.00">Migration version: 20160222124724</text>
<text text-anchor="start" x="105" y="-675.6" font-family="Times,serif" font-size="13.00">Generated by RailRoady 1.4.2</text>
<text text-anchor="start" x="105" y="-661.6" font-family="Times,serif" font-size="13.00">http://railroady.prestonlee.com</text>
</g>
<!-- ApiSubscriptionPlan -->
<g id="node2" class="node"><title>ApiSubscriptionPlan</title>
<path fill="none" stroke="black" d="M631,-632.5C631,-632.5 851,-632.5 851,-632.5 857,-632.5 863,-638.5 863,-644.5 863,-644.5 863,-741.5 863,-741.5 863,-747.5 857,-753.5 851,-753.5 851,-753.5 631,-753.5 631,-753.5 625,-753.5 619,-747.5 619,-741.5 619,-741.5 619,-644.5 619,-644.5 619,-638.5 625,-632.5 631,-632.5"/>
<text text-anchor="middle" x="741" y="-738.3" font-family="Times,serif" font-size="14.00">ApiSubscriptionPlan</text>
<polyline fill="none" stroke="black" points="619,-730.5 863,-730.5 "/>
<text text-anchor="start" x="627" y="-715.3" font-family="Times,serif" font-size="14.00">id :integer</text>
<text text-anchor="start" x="627" y="-700.3" font-family="Times,serif" font-size="14.00">max_hits_allowed :character varying</text>
<text text-anchor="start" x="627" y="-685.3" font-family="Times,serif" font-size="14.00">cost_per_hit :character varying</text>
<text text-anchor="start" x="627" y="-670.3" font-family="Times,serif" font-size="14.00">duration :character varying</text>
<text text-anchor="start" x="627" y="-655.3" font-family="Times,serif" font-size="14.00">created_at :timestamp without time zone</text>
<text text-anchor="start" x="627" y="-640.3" font-family="Times,serif" font-size="14.00">updated_at :timestamp without time zone</text>
</g>
<!-- GroupDetail -->
<g id="node4" class="node"><title>GroupDetail</title>
<path fill="none" stroke="black" d="M312,-406.5C312,-406.5 532,-406.5 532,-406.5 538,-406.5 544,-412.5 544,-418.5 544,-418.5 544,-545.5 544,-545.5 544,-551.5 538,-557.5 532,-557.5 532,-557.5 312,-557.5 312,-557.5 306,-557.5 300,-551.5 300,-545.5 300,-545.5 300,-418.5 300,-418.5 300,-412.5 306,-406.5 312,-406.5"/>
<text text-anchor="middle" x="422" y="-542.3" font-family="Times,serif" font-size="14.00">GroupDetail</text>
<polyline fill="none" stroke="black" points="300,-534.5 544,-534.5 "/>
<text text-anchor="start" x="308" y="-519.3" font-family="Times,serif" font-size="14.00">id :integer</text>
<text text-anchor="start" x="308" y="-504.3" font-family="Times,serif" font-size="14.00">name :character varying</text>
<text text-anchor="start" x="308" y="-489.3" font-family="Times,serif" font-size="14.00">start_date :date</text>
<text text-anchor="start" x="308" y="-474.3" font-family="Times,serif" font-size="14.00">end_date :date</text>
<text text-anchor="start" x="308" y="-459.3" font-family="Times,serif" font-size="14.00">header_json :jsonb</text>
<text text-anchor="start" x="308" y="-444.3" font-family="Times,serif" font-size="14.00">api_subscription :boolean</text>
<text text-anchor="start" x="308" y="-429.3" font-family="Times,serif" font-size="14.00">created_at :timestamp without time zone</text>
<text text-anchor="start" x="308" y="-414.3" font-family="Times,serif" font-size="14.00">updated_at :timestamp without time zone</text>
</g>
<!-- ApiSubscriptionPlan&#45;&gt;GroupDetail -->
<g id="edge2" class="edge"><title>ApiSubscriptionPlan&#45;&gt;GroupDetail</title>
<path fill="none" stroke="#c81994" d="M641.586,-626.867C610.815,-606.707 576.55,-584.257 544.412,-563.201"/>
<polygon fill="#c81994" stroke="#c81994" points="641.65,-626.908 647.548,-636.153 645.832,-629.649 650.014,-632.389 650.014,-632.389 650.014,-632.389 645.832,-629.649 652.48,-628.625 641.65,-626.908 641.65,-626.908"/>
<polygon fill="#c81994" stroke="#c81994" points="544.216,-563.073 538.317,-553.828 540.034,-560.332 535.851,-557.592 535.851,-557.592 535.851,-557.592 540.034,-560.332 533.385,-561.356 544.216,-563.073 544.216,-563.073"/>
</g>
<!-- PlanSubscription -->
<g id="node6" class="node"><title>PlanSubscription</title>
<path fill="none" stroke="black" d="M462,-233.5C462,-233.5 682,-233.5 682,-233.5 688,-233.5 694,-239.5 694,-245.5 694,-245.5 694,-342.5 694,-342.5 694,-348.5 688,-354.5 682,-354.5 682,-354.5 462,-354.5 462,-354.5 456,-354.5 450,-348.5 450,-342.5 450,-342.5 450,-245.5 450,-245.5 450,-239.5 456,-233.5 462,-233.5"/>
<text text-anchor="middle" x="572" y="-339.3" font-family="Times,serif" font-size="14.00">PlanSubscription</text>
<polyline fill="none" stroke="black" points="450,-331.5 694,-331.5 "/>
<text text-anchor="start" x="458" y="-316.3" font-family="Times,serif" font-size="14.00">id :integer</text>
<text text-anchor="start" x="458" y="-301.3" font-family="Times,serif" font-size="14.00">group_detail_id :integer</text>
<text text-anchor="start" x="458" y="-286.3" font-family="Times,serif" font-size="14.00">api_subscription_plan_id :integer</text>
<text text-anchor="start" x="458" y="-271.3" font-family="Times,serif" font-size="14.00">active :boolean</text>
<text text-anchor="start" x="458" y="-256.3" font-family="Times,serif" font-size="14.00">created_at :timestamp without time zone</text>
<text text-anchor="start" x="458" y="-241.3" font-family="Times,serif" font-size="14.00">updated_at :timestamp without time zone</text>
</g>
<!-- ApiSubscriptionPlan&#45;&gt;PlanSubscription -->
<g id="edge1" class="edge"><title>ApiSubscriptionPlan&#45;&gt;PlanSubscription</title>
<path fill="none" stroke="#6da86f" d="M712.265,-624.499C681.414,-552.025 632.644,-437.46 601.5,-364.298"/>
<ellipse fill="none" stroke="#6da86f" cx="713.949" cy="-628.455" rx="4.00002" ry="4.00002"/>
<polygon fill="#6da86f" stroke="#6da86f" points="601.331,-363.903 601.555,-352.939 599.373,-359.302 597.415,-354.702 597.415,-354.702 597.415,-354.702 599.373,-359.302 593.274,-356.464 601.331,-363.903 601.331,-363.903"/>
</g>
<!-- PlanConsumption -->
<g id="node8" class="node"><title>PlanConsumption</title>
<path fill="none" stroke="black" d="M537,-0.5C537,-0.5 757,-0.5 757,-0.5 763,-0.5 769,-6.5 769,-12.5 769,-12.5 769,-169.5 769,-169.5 769,-175.5 763,-181.5 757,-181.5 757,-181.5 537,-181.5 537,-181.5 531,-181.5 525,-175.5 525,-169.5 525,-169.5 525,-12.5 525,-12.5 525,-6.5 531,-0.5 537,-0.5"/>
<text text-anchor="middle" x="647" y="-166.3" font-family="Times,serif" font-size="14.00">PlanConsumption</text>
<polyline fill="none" stroke="black" points="525,-158.5 769,-158.5 "/>
<text text-anchor="start" x="533" y="-143.3" font-family="Times,serif" font-size="14.00">id :integer</text>
<text text-anchor="start" x="533" y="-128.3" font-family="Times,serif" font-size="14.00">plan_subscription_id :integer</text>
<text text-anchor="start" x="533" y="-113.3" font-family="Times,serif" font-size="14.00">month_year :date</text>
<text text-anchor="start" x="533" y="-98.3" font-family="Times,serif" font-size="14.00">hits_allowed :integer</text>
<text text-anchor="start" x="533" y="-83.3" font-family="Times,serif" font-size="14.00">hits_consumed :integer</text>
<text text-anchor="start" x="533" y="-68.3" font-family="Times,serif" font-size="14.00">successful_hits :integer</text>
<text text-anchor="start" x="533" y="-53.3" font-family="Times,serif" font-size="14.00">exhausted :boolean</text>
<text text-anchor="start" x="533" y="-38.3" font-family="Times,serif" font-size="14.00">exhausted_date :date</text>
<text text-anchor="start" x="533" y="-23.3" font-family="Times,serif" font-size="14.00">created_at :timestamp without time zone</text>
<text text-anchor="start" x="533" y="-8.3" font-family="Times,serif" font-size="14.00">updated_at :timestamp without time zone</text>
</g>
<!-- ApiSubscriptionPlan&#45;&gt;PlanConsumption -->
<g id="edge3" class="edge"><title>ApiSubscriptionPlan&#45;&gt;PlanConsumption</title>
<path fill="none" stroke="#ba4d12" d="M752.932,-622.186C766.243,-527.865 780.526,-355.692 736,-218 733.003,-208.731 729.06,-199.552 724.502,-190.624"/>
<polygon fill="#ba4d12" stroke="#ba4d12" points="752.918,-622.284 747.031,-631.536 752.201,-627.233 751.484,-632.181 751.484,-632.181 751.484,-632.181 752.201,-627.233 755.938,-632.826 752.918,-622.284 752.918,-622.284"/>
<polygon fill="#ba4d12" stroke="#ba4d12" points="724.486,-190.595 723.713,-179.656 722.118,-186.191 719.75,-181.787 719.75,-181.787 719.75,-181.787 722.118,-186.191 715.787,-183.918 724.486,-190.595 724.486,-190.595"/>
</g>
<!-- ChannelDetail -->
<g id="node3" class="node"><title>ChannelDetail</title>
<path fill="none" stroke="black" d="M341,-595C341,-595 561,-595 561,-595 567,-595 573,-601 573,-607 573,-607 573,-779 573,-779 573,-785 567,-791 561,-791 561,-791 341,-791 341,-791 335,-791 329,-785 329,-779 329,-779 329,-607 329,-607 329,-601 335,-595 341,-595"/>
<text text-anchor="middle" x="451" y="-775.8" font-family="Times,serif" font-size="14.00">ChannelDetail</text>
<polyline fill="none" stroke="black" points="329,-768 573,-768 "/>
<text text-anchor="start" x="337" y="-752.8" font-family="Times,serif" font-size="14.00">id :integer</text>
<text text-anchor="start" x="337" y="-737.8" font-family="Times,serif" font-size="14.00">channel_name :character varying</text>
<text text-anchor="start" x="337" y="-722.8" font-family="Times,serif" font-size="14.00">channgel_data_field :character varying</text>
<text text-anchor="start" x="337" y="-707.8" font-family="Times,serif" font-size="14.00">channel_unique_key :text</text>
<text text-anchor="start" x="337" y="-692.8" font-family="Times,serif" font-size="14.00">channel_code :character varying</text>
<text text-anchor="start" x="337" y="-677.8" font-family="Times,serif" font-size="14.00">has_product_id :boolean</text>
<text text-anchor="start" x="337" y="-662.8" font-family="Times,serif" font-size="14.00">has_city :boolean</text>
<text text-anchor="start" x="337" y="-647.8" font-family="Times,serif" font-size="14.00">icon :text</text>
<text text-anchor="start" x="337" y="-632.8" font-family="Times,serif" font-size="14.00">business_model :character varying</text>
<text text-anchor="start" x="337" y="-617.8" font-family="Times,serif" font-size="14.00">created_at :timestamp without time zone</text>
<text text-anchor="start" x="337" y="-602.8" font-family="Times,serif" font-size="14.00">updated_at :timestamp without time zone</text>
</g>
<!-- ChannelDetail&#45;&gt;GroupDetail -->
<g id="edge6" class="edge"><title>ChannelDetail&#45;&gt;GroupDetail</title>
<path fill="none" stroke="#991c04" d="M436.137,-584.887C435.342,-579.152 434.547,-573.427 433.764,-567.781"/>
<polygon fill="#991c04" stroke="#991c04" points="436.144,-584.937 433.061,-595.461 436.832,-589.89 437.519,-594.842 437.519,-594.842 437.519,-594.842 436.832,-589.89 441.976,-594.224 436.144,-584.937 436.144,-584.937"/>
<polygon fill="#991c04" stroke="#991c04" points="433.742,-567.626 436.825,-557.102 433.055,-562.673 432.368,-557.721 432.368,-557.721 432.368,-557.721 433.055,-562.673 427.911,-558.339 433.742,-567.626 433.742,-567.626"/>
</g>
<!-- ChannelDetail&#45;&gt;PlanSubscription -->
<g id="edge5" class="edge"><title>ChannelDetail&#45;&gt;PlanSubscription</title>
<path fill="none" stroke="#fe4c9b" d="M539.775,-586.119C544.883,-576.955 549.397,-567.534 553,-558 576.568,-495.645 579.472,-419.134 577.595,-364.746"/>
<polygon fill="#fe4c9b" stroke="#fe4c9b" points="539.739,-586.181 530.816,-592.556 537.222,-590.501 534.704,-594.821 534.704,-594.821 534.704,-594.821 537.222,-590.501 538.593,-597.087 539.739,-586.181 539.739,-586.181"/>
<polygon fill="#fe4c9b" stroke="#fe4c9b" points="577.585,-364.507 581.672,-354.331 577.381,-359.511 577.176,-354.515 577.176,-354.515 577.176,-354.515 577.381,-359.511 572.68,-354.699 577.585,-364.507 577.585,-364.507"/>
</g>
<!-- ChannelsSubscribedInPlan -->
<g id="node7" class="node"><title>ChannelsSubscribedInPlan</title>
<path fill="none" stroke="black" d="M12,-38C12,-38 232,-38 232,-38 238,-38 244,-44 244,-50 244,-50 244,-132 244,-132 244,-138 238,-144 232,-144 232,-144 12,-144 12,-144 6,-144 0,-138 0,-132 0,-132 0,-50 0,-50 0,-44 6,-38 12,-38"/>
<text text-anchor="middle" x="122" y="-128.8" font-family="Times,serif" font-size="14.00">ChannelsSubscribedInPlan</text>
<polyline fill="none" stroke="black" points="0,-121 244,-121 "/>
<text text-anchor="start" x="8" y="-105.8" font-family="Times,serif" font-size="14.00">id :integer</text>
<text text-anchor="start" x="8" y="-90.8" font-family="Times,serif" font-size="14.00">channel_detail_id :integer</text>
<text text-anchor="start" x="8" y="-75.8" font-family="Times,serif" font-size="14.00">plan_subscription_id :integer</text>
<text text-anchor="start" x="8" y="-60.8" font-family="Times,serif" font-size="14.00">created_at :timestamp without time zone</text>
<text text-anchor="start" x="8" y="-45.8" font-family="Times,serif" font-size="14.00">updated_at :timestamp without time zone</text>
</g>
<!-- ChannelDetail&#45;&gt;ChannelsSubscribedInPlan -->
<g id="edge4" class="edge"><title>ChannelDetail&#45;&gt;ChannelsSubscribedInPlan</title>
<path fill="none" stroke="#18f63f" d="M322.099,-593.399C231.398,-520.685 122.195,-425.175 99,-370 69.6818,-300.26 84.708,-212.118 100.877,-153.999"/>
<ellipse fill="none" stroke="#18f63f" cx="325.472" cy="-596.096" rx="4.00002" ry="4.00002"/>
<polygon fill="#18f63f" stroke="#18f63f" points="100.924,-153.835 108.011,-145.466 102.305,-149.029 103.686,-144.224 103.686,-144.224 103.686,-144.224 102.305,-149.029 99.3611,-142.981 100.924,-153.835 100.924,-153.835"/>
</g>
<!-- ChannelDetail&#45;&gt;PlanConsumption -->
<g id="edge7" class="edge"><title>ChannelDetail&#45;&gt;PlanConsumption</title>
<path fill="none" stroke="#cc69f1" d="M565.672,-587.572C619.909,-529.704 678.15,-452.808 703,-370 722.417,-305.295 717.024,-284.084 703,-218 701.121,-209.144 698.574,-200.154 695.599,-191.264"/>
<polygon fill="#cc69f1" stroke="#cc69f1" points="565.615,-587.632 555.47,-591.796 562.176,-591.262 558.737,-594.891 558.737,-594.891 558.737,-594.891 562.176,-591.262 562.004,-597.986 565.615,-587.632 565.615,-587.632"/>
<polygon fill="#cc69f1" stroke="#cc69f1" points="695.54,-191.098 696.457,-180.17 693.877,-186.382 692.214,-181.667 692.214,-181.667 692.214,-181.667 693.877,-186.382 687.97,-183.164 695.54,-191.098 695.54,-191.098"/>
</g>
<!-- GroupAuthenticationDetail -->
<g id="node5" class="node"><title>GroupAuthenticationDetail</title>
<path fill="none" stroke="black" d="M162,-218.5C162,-218.5 382,-218.5 382,-218.5 388,-218.5 394,-224.5 394,-230.5 394,-230.5 394,-357.5 394,-357.5 394,-363.5 388,-369.5 382,-369.5 382,-369.5 162,-369.5 162,-369.5 156,-369.5 150,-363.5 150,-357.5 150,-357.5 150,-230.5 150,-230.5 150,-224.5 156,-218.5 162,-218.5"/>
<text text-anchor="middle" x="272" y="-354.3" font-family="Times,serif" font-size="14.00">GroupAuthenticationDetail</text>
<polyline fill="none" stroke="black" points="150,-346.5 394,-346.5 "/>
<text text-anchor="start" x="158" y="-331.3" font-family="Times,serif" font-size="14.00">id :integer</text>
<text text-anchor="start" x="158" y="-316.3" font-family="Times,serif" font-size="14.00">user_id :character varying</text>
<text text-anchor="start" x="158" y="-301.3" font-family="Times,serif" font-size="14.00">secret_key :character varying</text>
<text text-anchor="start" x="158" y="-286.3" font-family="Times,serif" font-size="14.00">authorized_urls :text</text>
<text text-anchor="start" x="158" y="-271.3" font-family="Times,serif" font-size="14.00">group_detail_id :integer</text>
<text text-anchor="start" x="158" y="-256.3" font-family="Times,serif" font-size="14.00">email :character varying</text>
<text text-anchor="start" x="158" y="-241.3" font-family="Times,serif" font-size="14.00">created_at :timestamp without time zone</text>
<text text-anchor="start" x="158" y="-226.3" font-family="Times,serif" font-size="14.00">updated_at :timestamp without time zone</text>
</g>
<!-- GroupDetail&#45;&gt;GroupAuthenticationDetail -->
<g id="edge8" class="edge"><title>GroupDetail&#45;&gt;GroupAuthenticationDetail</title>
<path fill="none" stroke="#2c4400" d="M356.783,-400.131C350.39,-392.204 343.901,-384.158 337.506,-376.227"/>
<ellipse fill="none" stroke="#2c4400" cx="359.343" cy="-403.305" rx="4.00002" ry="4.00002"/>
<ellipse fill="#2c4400" stroke="#2c4400" cx="334.671" cy="-372.712" rx="4.00002" ry="4.00002"/>
</g>
<!-- GroupDetail&#45;&gt;PlanSubscription -->
<g id="edge9" class="edge"><title>GroupDetail&#45;&gt;PlanSubscription</title>
<path fill="none" stroke="#e99e0d" d="M487.372,-399.939C497.421,-387.478 507.705,-374.726 517.486,-362.598"/>
<ellipse fill="none" stroke="#e99e0d" cx="484.657" cy="-403.305" rx="4.00002" ry="4.00002"/>
<polygon fill="#e99e0d" stroke="#e99e0d" points="517.555,-362.511 527.336,-357.552 520.694,-358.619 523.833,-354.727 523.833,-354.727 523.833,-354.727 520.694,-358.619 520.33,-351.902 517.555,-362.511 517.555,-362.511"/>
</g>
<!-- GroupDetail&#45;&gt;ChannelsSubscribedInPlan -->
<g id="edge10" class="edge"><title>GroupDetail&#45;&gt;ChannelsSubscribedInPlan</title>
<path fill="none" stroke="#849254" d="M289.963,-460.658C235.049,-445.176 176.05,-417.93 141,-370 95.4205,-307.672 99.2918,-214.995 108.668,-154.044"/>
<polygon fill="#849254" stroke="#849254" points="290.151,-460.709 298.628,-467.665 294.977,-462.015 299.804,-463.321 299.804,-463.321 299.804,-463.321 294.977,-462.015 300.979,-458.978 290.151,-460.709 290.151,-460.709"/>
<polygon fill="#849254" stroke="#849254" points="108.669,-154.04 114.719,-144.894 109.473,-149.105 110.278,-144.17 110.278,-144.17 110.278,-144.17 109.473,-149.105 105.836,-143.446 108.669,-154.04 108.669,-154.04"/>
</g>
<!-- GroupDetail&#45;&gt;PlanConsumption -->
<g id="edge11" class="edge"><title>GroupDetail&#45;&gt;PlanConsumption</title>
<path fill="none" stroke="#4421e6" d="M409.227,-396.335C405.301,-341.621 408.722,-271.004 441,-218 458.961,-188.506 486.69,-164.948 516.042,-146.559"/>
<polygon fill="#4421e6" stroke="#4421e6" points="409.231,-396.391 405.555,-406.722 409.636,-401.375 410.04,-406.358 410.04,-406.358 410.04,-406.358 409.636,-401.375 414.525,-405.994 409.231,-396.391 409.231,-396.391"/>
<polygon fill="#4421e6" stroke="#4421e6" points="516.223,-146.449 527.107,-145.111 520.498,-143.856 524.774,-141.263 524.774,-141.263 524.774,-141.263 520.498,-143.856 522.44,-137.416 516.223,-146.449 516.223,-146.449"/>
</g>
<!-- PlanSubscription&#45;&gt;ChannelsSubscribedInPlan -->
<g id="edge12" class="edge"><title>PlanSubscription&#45;&gt;ChannelsSubscribedInPlan</title>
<path fill="none" stroke="#ba1570" d="M442.55,-235.179C381.383,-207.858 308.644,-175.368 247.931,-148.249"/>
<ellipse fill="none" stroke="#ba1570" cx="446.275" cy="-236.843" rx="4.00002" ry="4.00002"/>
<polygon fill="#ba1570" stroke="#ba1570" points="247.809,-148.195 240.514,-140.008 243.244,-146.156 238.679,-144.117 238.679,-144.117 238.679,-144.117 243.244,-146.156 236.844,-148.225 247.809,-148.195 247.809,-148.195"/>
</g>
<!-- PlanSubscription&#45;&gt;PlanConsumption -->
<g id="edge13" class="edge"><title>PlanSubscription&#45;&gt;PlanConsumption</title>
<path fill="none" stroke="#f3cac0" d="M597.176,-225.527C601.279,-214.532 605.603,-202.943 609.92,-191.375"/>
<ellipse fill="none" stroke="#f3cac0" cx="595.698" cy="-229.49" rx="4.00001" ry="4.00001"/>
<polygon fill="#f3cac0" stroke="#f3cac0" points="610.043,-191.044 617.755,-183.248 611.791,-186.36 613.539,-181.675 613.539,-181.675 613.539,-181.675 611.791,-186.36 609.323,-180.102 610.043,-191.044 610.043,-191.044"/>
</g>
</g>
</svg>
