<?xml version="1.0" encoding="UTF-8" standalone="no"?>
<!DOCTYPE svg PUBLIC "-//W3C//DTD SVG 1.1//EN"
 "http://www.w3.org/Graphics/SVG/1.1/DTD/svg11.dtd">
<!-- Generated by graphviz version 2.36.0 (20140111.2315)
 -->
<!-- Title: models_diagram Pages: 1 -->
<svg width="490pt" height="230pt"
 viewBox="0.00 0.00 490.00 230.00" xmlns="http://www.w3.org/2000/svg" xmlns:xlink="http://www.w3.org/1999/xlink">
<g id="graph0" class="graph" transform="scale(1 1) rotate(0) translate(4 226)">
<title>models_diagram</title>
<polygon fill="none" stroke="none" points="-4,4 -4,-226 486,-226 486,4 -4,4"/>
<!-- _diagram_info -->
<g id="node1" class="node"><title>_diagram_info</title>
<text text-anchor="start" x="8" y="-207.6" font-family="Times,serif" font-size="13.00">Models diagram</text>
<text text-anchor="start" x="8" y="-193.6" font-family="Times,serif" font-size="13.00">Date: Feb 24 2016 &#45; 12:30</text>
<text text-anchor="start" x="8" y="-179.6" font-family="Times,serif" font-size="13.00">Migration version: 20160224053310</text>
<text text-anchor="start" x="8" y="-165.6" font-family="Times,serif" font-size="13.00">Generated by RailRoady 1.4.2</text>
<text text-anchor="start" x="8" y="-151.6" font-family="Times,serif" font-size="13.00">http://railroady.prestonlee.com</text>
</g>
<!-- SubscriptionPlan -->
<g id="node2" class="node"><title>SubscriptionPlan</title>
<ellipse fill="none" stroke="black" cx="92" cy="-90" rx="70.2668" ry="18"/>
<text text-anchor="middle" x="92" y="-86.3" font-family="Times,serif" font-size="14.00">SubscriptionPlan</text>
</g>
<!-- PlanConsumption -->
<g id="node6" class="node"><title>PlanConsumption</title>
<ellipse fill="none" stroke="black" cx="257" cy="-18" rx="74.1402" ry="18"/>
<text text-anchor="middle" x="257" y="-14.3" font-family="Times,serif" font-size="14.00">PlanConsumption</text>
</g>
<!-- SubscriptionPlan&#45;&gt;PlanConsumption -->
<g id="edge1" class="edge"><title>SubscriptionPlan&#45;&gt;PlanConsumption</title>
<path fill="none" stroke="#7bb2ed" d="M134.417,-71.005C158.331,-60.8597 188.181,-48.1961 212.437,-37.9055"/>
<ellipse fill="none" stroke="#7bb2ed" cx="130.675" cy="-72.5926" rx="4.00002" ry="4.00002"/>
<polygon fill="#7bb2ed" stroke="#7bb2ed" points="212.568,-37.8499 223.532,-38.0869 217.171,-35.8971 221.774,-33.9443 221.774,-33.9443 221.774,-33.9443 217.171,-35.8971 220.017,-29.8017 212.568,-37.8499 212.568,-37.8499"/>
</g>
<!-- ChannelDetail -->
<g id="node3" class="node"><title>ChannelDetail</title>
<ellipse fill="none" stroke="black" cx="421" cy="-183" rx="61.6163" ry="18"/>
<text text-anchor="middle" x="421" y="-179.3" font-family="Times,serif" font-size="14.00">ChannelDetail</text>
</g>
<!-- GroupDetail -->
<g id="node4" class="node"><title>GroupDetail</title>
<ellipse fill="none" stroke="black" cx="287" cy="-183" rx="54.3924" ry="18"/>
<text text-anchor="middle" x="287" y="-179.3" font-family="Times,serif" font-size="14.00">GroupDetail</text>
</g>
<!-- GroupDetail&#45;&gt;SubscriptionPlan -->
<g id="edge3" class="edge"><title>GroupDetail&#45;&gt;SubscriptionPlan</title>
<path fill="none" stroke="#9ed24c" d="M255.715,-162.502C245.178,-156.263 233.24,-149.542 222,-144 194.859,-130.618 163.467,-117.75 138.33,-108.045"/>
<ellipse fill="none" stroke="#9ed24c" cx="259.328" cy="-164.668" rx="4.00002" ry="4.00002"/>
<ellipse fill="#9ed24c" stroke="#9ed24c" cx="134.477" cy="-106.569" rx="4.00001" ry="4.00001"/>
</g>
<!-- GroupAuthenticationDetail -->
<g id="node5" class="node"><title>GroupAuthenticationDetail</title>
<ellipse fill="none" stroke="black" cx="287" cy="-90" rx="106.386" ry="18"/>
<text text-anchor="middle" x="287" y="-86.3" font-family="Times,serif" font-size="14.00">GroupAuthenticationDetail</text>
</g>
<!-- GroupDetail&#45;&gt;GroupAuthenticationDetail -->
<g id="edge2" class="edge"><title>GroupDetail&#45;&gt;GroupAuthenticationDetail</title>
<path fill="none" stroke="#d4cb9d" d="M287,-156.729C287,-144.118 287,-128.905 287,-116.292"/>
<ellipse fill="none" stroke="#d4cb9d" cx="287" cy="-160.884" rx="4" ry="4"/>
<ellipse fill="#d4cb9d" stroke="#d4cb9d" cx="287" cy="-112.04" rx="4" ry="4"/>
</g>
<!-- GroupDetail&#45;&gt;PlanConsumption -->
<g id="edge4" class="edge"><title>GroupDetail&#45;&gt;PlanConsumption</title>
<path fill="none" stroke="#2c0bd6" d="M320.344,-161.628C353.469,-141.227 399.677,-112.257 402,-108 409.664,-93.9549 411.168,-85.1127 402,-72 386.134,-49.3087 359.462,-36.3003 333.289,-28.8551"/>
<polygon fill="#2c0bd6" stroke="#2c0bd6" points="320.337,-161.632 309.461,-163.035 316.077,-164.25 311.818,-166.868 311.818,-166.868 311.818,-166.868 316.077,-164.25 314.174,-170.702 320.337,-161.632 320.337,-161.632"/>
<polygon fill="#2c0bd6" stroke="#2c0bd6" points="332.985,-28.7764 324.435,-21.9096 328.145,-27.5209 323.305,-26.2654 323.305,-26.2654 323.305,-26.2654 328.145,-27.5209 322.175,-30.6213 332.985,-28.7764 332.985,-28.7764"/>
</g>
</g>
</svg>
