<?xml version="1.0" encoding="UTF-8" standalone="no"?>
<!DOCTYPE svg PUBLIC "-//W3C//DTD SVG 1.1//EN"
 "http://www.w3.org/Graphics/SVG/1.1/DTD/svg11.dtd">
<!-- Generated by graphviz version 2.36.0 (20140111.2315)
 -->
<!-- Title: models_diagram Pages: 1 -->
<svg width="753pt" height="598pt"
 viewBox="0.00 0.00 753.00 598.00" xmlns="http://www.w3.org/2000/svg" xmlns:xlink="http://www.w3.org/1999/xlink">
<g id="graph0" class="graph" transform="scale(1 1) rotate(0) translate(4 594)">
<title>models_diagram</title>
<polygon fill="none" stroke="none" points="-4,4 -4,-594 749,-594 749,4 -4,4"/>
<!-- _diagram_info -->
<g id="node1" class="node"><title>_diagram_info</title>
<text text-anchor="start" x="38" y="-530.6" font-family="Times,serif" font-size="13.00">Models diagram</text>
<text text-anchor="start" x="38" y="-516.6" font-family="Times,serif" font-size="13.00">Date: Feb 24 2016 &#45; 12:30</text>
<text text-anchor="start" x="38" y="-502.6" font-family="Times,serif" font-size="13.00">Migration version: 20160224053310</text>
<text text-anchor="start" x="38" y="-488.6" font-family="Times,serif" font-size="13.00">Generated by RailRoady 1.4.2</text>
<text text-anchor="start" x="38" y="-474.6" font-family="Times,serif" font-size="13.00">http://railroady.prestonlee.com</text>
</g>
<!-- SubscriptionPlan -->
<g id="node2" class="node"><title>SubscriptionPlan</title>
<path fill="none" stroke="black" d="M12,-189C12,-189 232,-189 232,-189 238,-189 244,-195 244,-201 244,-201 244,-373 244,-373 244,-379 238,-385 232,-385 232,-385 12,-385 12,-385 6,-385 0,-379 0,-373 0,-373 0,-201 0,-201 0,-195 6,-189 12,-189"/>
<text text-anchor="middle" x="122" y="-369.8" font-family="Times,serif" font-size="14.00">SubscriptionPlan</text>
<polyline fill="none" stroke="black" points="0,-362 244,-362 "/>
<text text-anchor="start" x="8" y="-346.8" font-family="Times,serif" font-size="14.00">id :integer</text>
<text text-anchor="start" x="8" y="-331.8" font-family="Times,serif" font-size="14.00">group_detail_id :integer</text>
<text text-anchor="start" x="8" y="-316.8" font-family="Times,serif" font-size="14.00">channel_ids :text</text>
<text text-anchor="start" x="8" y="-301.8" font-family="Times,serif" font-size="14.00">max_hits_allowed :jsonb</text>
<text text-anchor="start" x="8" y="-286.8" font-family="Times,serif" font-size="14.00">channel_distribution :boolean</text>
<text text-anchor="start" x="8" y="-271.8" font-family="Times,serif" font-size="14.00">auto_renewal :jsonb</text>
<text text-anchor="start" x="8" y="-256.8" font-family="Times,serif" font-size="14.00">start_date :jsonb</text>
<text text-anchor="start" x="8" y="-241.8" font-family="Times,serif" font-size="14.00">duration :jsonb</text>
<text text-anchor="start" x="8" y="-226.8" font-family="Times,serif" font-size="14.00">active :jsonb</text>
<text text-anchor="start" x="8" y="-211.8" font-family="Times,serif" font-size="14.00">created_at :timestamp without time zone</text>
<text text-anchor="start" x="8" y="-196.8" font-family="Times,serif" font-size="14.00">updated_at :timestamp without time zone</text>
</g>
<!-- PlanConsumption -->
<g id="node6" class="node"><title>PlanConsumption</title>
<path fill="none" stroke="black" d="M218,-0.5C218,-0.5 438,-0.5 438,-0.5 444,-0.5 450,-6.5 450,-12.5 450,-12.5 450,-139.5 450,-139.5 450,-145.5 444,-151.5 438,-151.5 438,-151.5 218,-151.5 218,-151.5 212,-151.5 206,-145.5 206,-139.5 206,-139.5 206,-12.5 206,-12.5 206,-6.5 212,-0.5 218,-0.5"/>
<text text-anchor="middle" x="328" y="-136.3" font-family="Times,serif" font-size="14.00">PlanConsumption</text>
<polyline fill="none" stroke="black" points="206,-128.5 450,-128.5 "/>
<text text-anchor="start" x="214" y="-113.3" font-family="Times,serif" font-size="14.00">id :integer</text>
<text text-anchor="start" x="214" y="-98.3" font-family="Times,serif" font-size="14.00">subscription_plan_id :integer</text>
<text text-anchor="start" x="214" y="-83.3" font-family="Times,serif" font-size="14.00">plan_end_date :jsonb</text>
<text text-anchor="start" x="214" y="-68.3" font-family="Times,serif" font-size="14.00">hits_consumed :jsonb</text>
<text text-anchor="start" x="214" y="-53.3" font-family="Times,serif" font-size="14.00">exhausted :jsonb</text>
<text text-anchor="start" x="214" y="-38.3" font-family="Times,serif" font-size="14.00">exhausted_date :jsonb</text>
<text text-anchor="start" x="214" y="-23.3" font-family="Times,serif" font-size="14.00">created_at :timestamp without time zone</text>
<text text-anchor="start" x="214" y="-8.3" font-family="Times,serif" font-size="14.00">updated_at :timestamp without time zone</text>
</g>
<!-- SubscriptionPlan&#45;&gt;PlanConsumption -->
<g id="edge1" class="edge"><title>SubscriptionPlan&#45;&gt;PlanConsumption</title>
<path fill="none" stroke="#08bd24" d="M223.533,-182.988C231.491,-174.914 239.461,-166.829 247.252,-158.924"/>
<ellipse fill="none" stroke="#08bd24" cx="220.571" cy="-185.993" rx="4.00002" ry="4.00002"/>
<polygon fill="#08bd24" stroke="#08bd24" points="247.332,-158.843 257.557,-154.88 250.842,-155.282 254.352,-151.721 254.352,-151.721 254.352,-151.721 250.842,-155.282 251.147,-148.562 247.332,-158.843 247.332,-158.843"/>
</g>
<!-- ChannelDetail -->
<g id="node3" class="node"><title>ChannelDetail</title>
<path fill="none" stroke="black" d="M536.5,-423C536.5,-423 733.5,-423 733.5,-423 739.5,-423 745.5,-429 745.5,-435 745.5,-435 745.5,-577 745.5,-577 745.5,-583 739.5,-589 733.5,-589 733.5,-589 536.5,-589 536.5,-589 530.5,-589 524.5,-583 524.5,-577 524.5,-577 524.5,-435 524.5,-435 524.5,-429 530.5,-423 536.5,-423"/>
<text text-anchor="middle" x="635" y="-573.8" font-family="Times,serif" font-size="14.00">ChannelDetail</text>
<polyline fill="none" stroke="black" points="524.5,-566 745.5,-566 "/>
<text text-anchor="start" x="532.5" y="-550.8" font-family="Times,serif" font-size="14.00">id :integer</text>
<text text-anchor="start" x="532.5" y="-535.8" font-family="Times,serif" font-size="14.00">channel_name :character varying</text>
<text text-anchor="start" x="532.5" y="-520.8" font-family="Times,serif" font-size="14.00">channel_data_field :character varying</text>
<text text-anchor="start" x="532.5" y="-505.8" font-family="Times,serif" font-size="14.00">channel_unique_key :text</text>
<text text-anchor="start" x="532.5" y="-490.8" font-family="Times,serif" font-size="14.00">channel_code :character varying</text>
<text text-anchor="start" x="532.5" y="-475.8" font-family="Times,serif" font-size="14.00">has_product_id :boolean</text>
<text text-anchor="start" x="532.5" y="-460.8" font-family="Times,serif" font-size="14.00">has_city :boolean</text>
<text text-anchor="start" x="532.5" y="-445.8" font-family="Times,serif" font-size="14.00">icon :text</text>
<text text-anchor="start" x="532.5" y="-430.8" font-family="Times,serif" font-size="14.00">business_model :character varying</text>
</g>
<!-- GroupDetail -->
<g id="node4" class="node"><title>GroupDetail</title>
<path fill="none" stroke="black" d="M274,-430.5C274,-430.5 494,-430.5 494,-430.5 500,-430.5 506,-436.5 506,-442.5 506,-442.5 506,-569.5 506,-569.5 506,-575.5 500,-581.5 494,-581.5 494,-581.5 274,-581.5 274,-581.5 268,-581.5 262,-575.5 262,-569.5 262,-569.5 262,-442.5 262,-442.5 262,-436.5 268,-430.5 274,-430.5"/>
<text text-anchor="middle" x="384" y="-566.3" font-family="Times,serif" font-size="14.00">GroupDetail</text>
<polyline fill="none" stroke="black" points="262,-558.5 506,-558.5 "/>
<text text-anchor="start" x="270" y="-543.3" font-family="Times,serif" font-size="14.00">id :integer</text>
<text text-anchor="start" x="270" y="-528.3" font-family="Times,serif" font-size="14.00">name :character varying</text>
<text text-anchor="start" x="270" y="-513.3" font-family="Times,serif" font-size="14.00">start_date :date</text>
<text text-anchor="start" x="270" y="-498.3" font-family="Times,serif" font-size="14.00">end_date :date</text>
<text text-anchor="start" x="270" y="-483.3" font-family="Times,serif" font-size="14.00">header_json :jsonb</text>
<text text-anchor="start" x="270" y="-468.3" font-family="Times,serif" font-size="14.00">api_subscription :boolean</text>
<text text-anchor="start" x="270" y="-453.3" font-family="Times,serif" font-size="14.00">created_at :timestamp without time zone</text>
<text text-anchor="start" x="270" y="-438.3" font-family="Times,serif" font-size="14.00">updated_at :timestamp without time zone</text>
</g>
<!-- GroupDetail&#45;&gt;SubscriptionPlan -->
<g id="edge3" class="edge"><title>GroupDetail&#45;&gt;SubscriptionPlan</title>
<path fill="none" stroke="#e2a37c" d="M287.599,-425.156C273.933,-413.838 259.726,-402.07 245.632,-390.398"/>
<ellipse fill="none" stroke="#e2a37c" cx="290.754" cy="-427.769" rx="4.00002" ry="4.00002"/>
<ellipse fill="#e2a37c" stroke="#e2a37c" cx="242.248" cy="-387.595" rx="4.00002" ry="4.00002"/>
</g>
<!-- GroupAuthenticationDetail -->
<g id="node5" class="node"><title>GroupAuthenticationDetail</title>
<path fill="none" stroke="black" d="M274,-204C274,-204 494,-204 494,-204 500,-204 506,-210 506,-216 506,-216 506,-358 506,-358 506,-364 500,-370 494,-370 494,-370 274,-370 274,-370 268,-370 262,-364 262,-358 262,-358 262,-216 262,-216 262,-210 268,-204 274,-204"/>
<text text-anchor="middle" x="384" y="-354.8" font-family="Times,serif" font-size="14.00">GroupAuthenticationDetail</text>
<polyline fill="none" stroke="black" points="262,-347 506,-347 "/>
<text text-anchor="start" x="270" y="-331.8" font-family="Times,serif" font-size="14.00">id :integer</text>
<text text-anchor="start" x="270" y="-316.8" font-family="Times,serif" font-size="14.00">user_id :character varying</text>
<text text-anchor="start" x="270" y="-301.8" font-family="Times,serif" font-size="14.00">secret_key :character varying</text>
<text text-anchor="start" x="270" y="-286.8" font-family="Times,serif" font-size="14.00">authorized_urls :text</text>
<text text-anchor="start" x="270" y="-271.8" font-family="Times,serif" font-size="14.00">group_detail_id :integer</text>
<text text-anchor="start" x="270" y="-256.8" font-family="Times,serif" font-size="14.00">email :character varying</text>
<text text-anchor="start" x="270" y="-241.8" font-family="Times,serif" font-size="14.00">created_at :timestamp without time zone</text>
<text text-anchor="start" x="270" y="-226.8" font-family="Times,serif" font-size="14.00">updated_at :timestamp without time zone</text>
<text text-anchor="start" x="270" y="-211.8" font-family="Times,serif" font-size="14.00">max_hits_allowed :integer</text>
</g>
<!-- GroupDetail&#45;&gt;GroupAuthenticationDetail -->
<g id="edge2" class="edge"><title>GroupDetail&#45;&gt;GroupAuthenticationDetail</title>
<path fill="none" stroke="#f1cd20" d="M384,-422.062C384,-407.731 384,-392.77 384,-378.256"/>
<ellipse fill="none" stroke="#f1cd20" cx="384" cy="-426.321" rx="4" ry="4"/>
<ellipse fill="#f1cd20" stroke="#f1cd20" cx="384" cy="-374.246" rx="4" ry="4"/>
</g>
<!-- GroupDetail&#45;&gt;PlanConsumption -->
<g id="edge4" class="edge"><title>GroupDetail&#45;&gt;PlanConsumption</title>
<path fill="none" stroke="#d4776d" d="M491.856,-422.761C501.138,-411.425 509.19,-399.126 515,-386 550.616,-305.53 558.539,-264.475 515,-188 501.75,-164.726 481.484,-145.827 459.108,-130.666"/>
<polygon fill="#d4776d" stroke="#d4776d" points="491.763,-422.869 481.832,-427.52 488.504,-426.661 485.245,-430.453 485.245,-430.453 485.245,-430.453 488.504,-426.661 488.658,-433.386 491.763,-422.869 491.763,-422.869"/>
<polygon fill="#d4776d" stroke="#d4776d" points="458.826,-130.483 452.89,-121.263 454.633,-127.76 450.439,-125.037 450.439,-125.037 450.439,-125.037 454.633,-127.76 447.989,-128.811 458.826,-130.483 458.826,-130.483"/>
</g>
</g>
</svg>
