<?xml version="1.0" encoding="UTF-8" standalone="no"?>
<!DOCTYPE svg PUBLIC "-//W3C//DTD SVG 1.1//EN"
 "http://www.w3.org/Graphics/SVG/1.1/DTD/svg11.dtd">
<!-- Generated by graphviz version 2.36.0 (20140111.2315)
 -->
<!-- Title: models_diagram Pages: 1 -->
<svg width="490pt" height="158pt"
 viewBox="0.00 0.00 490.00 158.00" xmlns="http://www.w3.org/2000/svg" xmlns:xlink="http://www.w3.org/1999/xlink">
<g id="graph0" class="graph" transform="scale(1 1) rotate(0) translate(4 154)">
<title>models_diagram</title>
<polygon fill="none" stroke="none" points="-4,4 -4,-154 486,-154 486,4 -4,4"/>
<!-- _diagram_info -->
<g id="node1" class="node"><title>_diagram_info</title>
<text text-anchor="start" x="8" y="-135.6" font-family="Times,serif" font-size="13.00">Models diagram</text>
<text text-anchor="start" x="8" y="-121.6" font-family="Times,serif" font-size="13.00">Date: Feb 24 2016 &#45; 14:23</text>
<text text-anchor="start" x="8" y="-107.6" font-family="Times,serif" font-size="13.00">Migration version: 20160224081246</text>
<text text-anchor="start" x="8" y="-93.6" font-family="Times,serif" font-size="13.00">Generated by RailRoady 1.4.2</text>
<text text-anchor="start" x="8" y="-79.6" font-family="Times,serif" font-size="13.00">http://railroady.prestonlee.com</text>
</g>
<!-- SubscriptionPlan -->
<g id="node2" class="node"><title>SubscriptionPlan</title>
<ellipse fill="none" stroke="black" cx="287" cy="-18" rx="70.2668" ry="18"/>
<text text-anchor="middle" x="287" y="-14.3" font-family="Times,serif" font-size="14.00">SubscriptionPlan</text>
</g>
<!-- ChannelDetail -->
<g id="node3" class="node"><title>ChannelDetail</title>
<ellipse fill="none" stroke="black" cx="421" cy="-111" rx="61.6163" ry="18"/>
<text text-anchor="middle" x="421" y="-107.3" font-family="Times,serif" font-size="14.00">ChannelDetail</text>
</g>
<!-- ApiStat -->
<g id="node5" class="node"><title>ApiStat</title>
<ellipse fill="none" stroke="black" cx="417" cy="-18" rx="37.5442" ry="18"/>
<text text-anchor="middle" x="417" y="-14.3" font-family="Times,serif" font-size="14.00">ApiStat</text>
</g>
<!-- ChannelDetail&#45;&gt;ApiStat -->
<g id="edge1" class="edge"><title>ChannelDetail&#45;&gt;ApiStat</title>
<path fill="none" stroke="#2a196c" d="M419.889,-84.7285C419.362,-72.7246 418.73,-58.3622 418.192,-46.1291"/>
<ellipse fill="none" stroke="#2a196c" cx="420.072" cy="-88.8875" rx="4" ry="4"/>
<polygon fill="#2a196c" stroke="#2a196c" points="418.188,-46.03 422.245,-35.842 417.969,-41.0348 417.749,-36.0397 417.749,-36.0397 417.749,-36.0397 417.969,-41.0348 413.253,-36.2373 418.188,-46.03 418.188,-46.03"/>
</g>
<!-- GroupDetail -->
<g id="node4" class="node"><title>GroupDetail</title>
<ellipse fill="none" stroke="black" cx="287" cy="-111" rx="54.3924" ry="18"/>
<text text-anchor="middle" x="287" y="-107.3" font-family="Times,serif" font-size="14.00">GroupDetail</text>
</g>
<!-- GroupDetail&#45;&gt;SubscriptionPlan -->
<g id="edge2" class="edge"><title>GroupDetail&#45;&gt;SubscriptionPlan</title>
<path fill="none" stroke="#c1d2e8" d="M287,-84.7285C287,-72.1184 287,-56.9054 287,-44.2924"/>
<ellipse fill="none" stroke="#c1d2e8" cx="287" cy="-88.8836" rx="4" ry="4"/>
<ellipse fill="#c1d2e8" stroke="#c1d2e8" cx="287" cy="-40.0397" rx="4" ry="4"/>
</g>
<!-- GroupDetail&#45;&gt;ApiStat -->
<g id="edge3" class="edge"><title>GroupDetail&#45;&gt;ApiStat</title>
<path fill="none" stroke="#0ccc0a" d="M315.977,-89.7164C337.517,-74.6383 366.771,-54.1602 388.256,-39.1211"/>
<ellipse fill="none" stroke="#0ccc0a" cx="312.625" cy="-92.0627" rx="4.00002" ry="4.00002"/>
<polygon fill="#0ccc0a" stroke="#0ccc0a" points="388.461,-38.9776 399.233,-36.9295 392.557,-36.1103 396.653,-33.243 396.653,-33.243 396.653,-33.243 392.557,-36.1103 394.072,-29.5564 388.461,-38.9776 388.461,-38.9776"/>
</g>
</g>
</svg>
