<?xml version="1.0" encoding="UTF-8" standalone="no"?>
<!DOCTYPE svg PUBLIC "-//W3C//DTD SVG 1.1//EN"
 "http://www.w3.org/Graphics/SVG/1.1/DTD/svg11.dtd">
<!-- Generated by graphviz version 2.36.0 (20140111.2315)
 -->
<!-- Title: models_diagram Pages: 1 -->
<svg width="799pt" height="302pt"
 viewBox="0.00 0.00 799.00 302.00" xmlns="http://www.w3.org/2000/svg" xmlns:xlink="http://www.w3.org/1999/xlink">
<g id="graph0" class="graph" transform="scale(1 1) rotate(0) translate(4 298)">
<title>models_diagram</title>
<polygon fill="none" stroke="none" points="-4,4 -4,-298 795,-298 795,4 -4,4"/>
<!-- _diagram_info -->
<g id="node1" class="node"><title>_diagram_info</title>
<text text-anchor="start" x="118" y="-279.6" font-family="Times,serif" font-size="13.00">Models diagram</text>
<text text-anchor="start" x="118" y="-265.6" font-family="Times,serif" font-size="13.00">Date: Feb 22 2016 &#45; 18:35</text>
<text text-anchor="start" x="118" y="-251.6" font-family="Times,serif" font-size="13.00">Migration version: 20160222124724</text>
<text text-anchor="start" x="118" y="-237.6" font-family="Times,serif" font-size="13.00">Generated by RailRoady 1.4.2</text>
<text text-anchor="start" x="118" y="-223.6" font-family="Times,serif" font-size="13.00">http://railroady.prestonlee.com</text>
</g>
<!-- ApiSubscriptionPlan -->
<g id="node2" class="node"><title>ApiSubscriptionPlan</title>
<ellipse fill="none" stroke="black" cx="592" cy="-255" rx="83.2649" ry="18"/>
<text text-anchor="middle" x="592" y="-251.3" font-family="Times,serif" font-size="14.00">ApiSubscriptionPlan</text>
</g>
<!-- GroupDetail -->
<g id="node4" class="node"><title>GroupDetail</title>
<ellipse fill="none" stroke="black" cx="379" cy="-162" rx="54.3924" ry="18"/>
<text text-anchor="middle" x="379" y="-158.3" font-family="Times,serif" font-size="14.00">GroupDetail</text>
</g>
<!-- ApiSubscriptionPlan&#45;&gt;GroupDetail -->
<g id="edge2" class="edge"><title>ApiSubscriptionPlan&#45;&gt;GroupDetail</title>
<path fill="none" stroke="#599440" d="M546.442,-234.536C509.07,-218.57 456.608,-196.156 420.414,-180.693"/>
<polygon fill="#599440" stroke="#599440" points="546.672,-234.634 554.099,-242.701 551.269,-236.599 555.867,-238.563 555.867,-238.563 555.867,-238.563 551.269,-236.599 557.635,-234.425 546.672,-234.634 546.672,-234.634"/>
<polygon fill="#599440" stroke="#599440" points="420.318,-180.653 412.89,-172.586 415.72,-178.688 411.122,-176.724 411.122,-176.724 411.122,-176.724 415.72,-178.688 409.355,-180.862 420.318,-180.653 420.318,-180.653"/>
</g>
<!-- PlanSubscription -->
<g id="node6" class="node"><title>PlanSubscription</title>
<ellipse fill="none" stroke="black" cx="474" cy="-90" rx="70.2668" ry="18"/>
<text text-anchor="middle" x="474" y="-86.3" font-family="Times,serif" font-size="14.00">PlanSubscription</text>
</g>
<!-- ApiSubscriptionPlan&#45;&gt;PlanSubscription -->
<g id="edge1" class="edge"><title>ApiSubscriptionPlan&#45;&gt;PlanSubscription</title>
<path fill="none" stroke="#24a87b" d="M574.988,-230.5C552.983,-200.103 514.804,-147.364 492.223,-116.172"/>
<ellipse fill="none" stroke="#24a87b" cx="577.471" cy="-233.93" rx="4.00002" ry="4.00002"/>
<polygon fill="#24a87b" stroke="#24a87b" points="492.158,-116.083 489.939,-105.344 489.226,-112.033 486.294,-107.983 486.294,-107.983 486.294,-107.983 489.226,-112.033 482.649,-110.621 492.158,-116.083 492.158,-116.083"/>
</g>
<!-- PlanConsumption -->
<g id="node8" class="node"><title>PlanConsumption</title>
<ellipse fill="none" stroke="black" cx="523" cy="-18" rx="74.1402" ry="18"/>
<text text-anchor="middle" x="523" y="-14.3" font-family="Times,serif" font-size="14.00">PlanConsumption</text>
</g>
<!-- ApiSubscriptionPlan&#45;&gt;PlanConsumption -->
<g id="edge3" class="edge"><title>ApiSubscriptionPlan&#45;&gt;PlanConsumption</title>
<path fill="none" stroke="#5a0208" d="M597.914,-226.801C604.546,-189.718 611.442,-122.176 587,-72 580.959,-59.598 570.501,-49.0661 559.769,-40.7377"/>
<polygon fill="#5a0208" stroke="#5a0208" points="597.871,-227.025 591.568,-235.999 596.929,-231.935 595.988,-236.846 595.988,-236.846 595.988,-236.846 596.929,-231.935 600.407,-237.693 597.871,-227.025 597.871,-227.025"/>
<polygon fill="#5a0208" stroke="#5a0208" points="559.676,-40.6703 554.217,-31.1596 555.626,-37.7371 551.577,-34.804 551.577,-34.804 551.577,-34.804 555.626,-37.7371 548.937,-38.4483 559.676,-40.6703 559.676,-40.6703"/>
</g>
<!-- ChannelDetail -->
<g id="node3" class="node"><title>ChannelDetail</title>
<ellipse fill="none" stroke="black" cx="404" cy="-255" rx="61.6163" ry="18"/>
<text text-anchor="middle" x="404" y="-251.3" font-family="Times,serif" font-size="14.00">ChannelDetail</text>
</g>
<!-- ChannelDetail&#45;&gt;GroupDetail -->
<g id="edge6" class="edge"><title>ChannelDetail&#45;&gt;GroupDetail</title>
<path fill="none" stroke="#6438ae" d="M396.579,-226.988C393.347,-215.221 389.568,-201.467 386.344,-189.732"/>
<polygon fill="#6438ae" stroke="#6438ae" points="396.649,-227.241 394.958,-238.076 397.973,-232.062 399.298,-236.884 399.298,-236.884 399.298,-236.884 397.973,-232.062 403.637,-235.691 396.649,-227.241 396.649,-227.241"/>
<polygon fill="#6438ae" stroke="#6438ae" points="386.33,-189.682 388.02,-178.848 385.006,-184.861 383.681,-180.04 383.681,-180.04 383.681,-180.04 385.006,-184.861 379.342,-181.232 386.33,-189.682 386.33,-189.682"/>
</g>
<!-- ChannelDetail&#45;&gt;PlanSubscription -->
<g id="edge5" class="edge"><title>ChannelDetail&#45;&gt;PlanSubscription</title>
<path fill="none" stroke="#a1d43b" d="M418.439,-227.919C425.92,-213.922 434.941,-196.252 442,-180 450.955,-159.383 459.483,-135.366 465.481,-117.481"/>
<polygon fill="#a1d43b" stroke="#a1d43b" points="418.307,-228.164 409.591,-234.819 415.928,-232.562 413.549,-236.96 413.549,-236.96 413.549,-236.96 415.928,-232.562 417.507,-239.101 418.307,-228.164 418.307,-228.164"/>
<polygon fill="#a1d43b" stroke="#a1d43b" points="465.481,-117.478 472.893,-109.396 467.051,-112.731 468.621,-107.984 468.621,-107.984 468.621,-107.984 467.051,-112.731 464.348,-106.571 465.481,-117.478 465.481,-117.478"/>
</g>
<!-- ChannelsSubscribedInPlan -->
<g id="node7" class="node"><title>ChannelsSubscribedInPlan</title>
<ellipse fill="none" stroke="black" cx="105" cy="-18" rx="104.937" ry="18"/>
<text text-anchor="middle" x="105" y="-14.3" font-family="Times,serif" font-size="14.00">ChannelsSubscribedInPlan</text>
</g>
<!-- ChannelDetail&#45;&gt;ChannelsSubscribedInPlan -->
<g id="edge4" class="edge"><title>ChannelDetail&#45;&gt;ChannelsSubscribedInPlan</title>
<path fill="none" stroke="#ae69ed" d="M369.03,-235.14C357.316,-228.93 344.147,-222.066 332,-216 231.326,-165.725 163.255,-203.037 103,-108 91.4088,-89.7178 93.0998,-64.7995 97.0088,-45.9791"/>
<ellipse fill="none" stroke="#ae69ed" cx="372.582" cy="-237.029" rx="4.00002" ry="4.00002"/>
<polygon fill="#ae69ed" stroke="#ae69ed" points="97.0139,-45.9577 103.715,-37.2776 98.1762,-41.0946 99.3384,-36.2316 99.3384,-36.2316 99.3384,-36.2316 98.1762,-41.0946 94.9617,-35.1855 97.0139,-45.9577 97.0139,-45.9577"/>
</g>
<!-- ChannelDetail&#45;&gt;PlanConsumption -->
<g id="edge7" class="edge"><title>ChannelDetail&#45;&gt;PlanConsumption</title>
<path fill="none" stroke="#37c595" d="M437.851,-232.976C474.166,-208.205 529.751,-163.33 553,-108 561.767,-87.1342 552.208,-62.7307 541.618,-44.76"/>
<polygon fill="#37c595" stroke="#37c595" points="437.832,-232.989 427.016,-234.798 433.674,-235.765 429.515,-238.541 429.515,-238.541 429.515,-238.541 433.674,-235.765 432.014,-242.284 437.832,-232.989 437.832,-232.989"/>
<polygon fill="#37c595" stroke="#37c595" points="541.423,-44.4528 539.88,-33.596 538.75,-40.2273 536.077,-36.0017 536.077,-36.0017 536.077,-36.0017 538.75,-40.2273 532.274,-38.4074 541.423,-44.4528 541.423,-44.4528"/>
</g>
<!-- GroupAuthenticationDetail -->
<g id="node5" class="node"><title>GroupAuthenticationDetail</title>
<ellipse fill="none" stroke="black" cx="240" cy="-90" rx="106.386" ry="18"/>
<text text-anchor="middle" x="240" y="-86.3" font-family="Times,serif" font-size="14.00">GroupAuthenticationDetail</text>
</g>
<!-- GroupDetail&#45;&gt;GroupAuthenticationDetail -->
<g id="edge8" class="edge"><title>GroupDetail&#45;&gt;GroupAuthenticationDetail</title>
<path fill="none" stroke="#6efe1a" d="M343.351,-143.047C323.836,-133.219 299.609,-121.019 279.518,-110.901"/>
<ellipse fill="none" stroke="#6efe1a" cx="346.963" cy="-144.866" rx="4.00002" ry="4.00002"/>
<ellipse fill="#6efe1a" stroke="#6efe1a" cx="275.892" cy="-109.075" rx="4.00002" ry="4.00002"/>
</g>
<!-- GroupDetail&#45;&gt;PlanSubscription -->
<g id="edge9" class="edge"><title>GroupDetail&#45;&gt;PlanSubscription</title>
<path fill="none" stroke="#951fe6" d="M407.304,-140.145C418.774,-131.693 432.041,-121.917 443.706,-113.322"/>
<ellipse fill="none" stroke="#951fe6" cx="403.777" cy="-142.743" rx="4.00002" ry="4.00002"/>
<polygon fill="#951fe6" stroke="#951fe6" points="443.818,-113.239 454.538,-110.93 447.844,-110.273 451.869,-107.307 451.869,-107.307 451.869,-107.307 447.844,-110.273 449.2,-103.684 443.818,-113.239 443.818,-113.239"/>
</g>
<!-- GroupDetail&#45;&gt;ChannelsSubscribedInPlan -->
<g id="edge10" class="edge"><title>GroupDetail&#45;&gt;ChannelsSubscribedInPlan</title>
<path fill="none" stroke="#d13640" d="M317.022,-155.824C250.475,-148.973 150.682,-134.539 124,-108 108.026,-92.1125 103.953,-66.3111 103.478,-46.5692"/>
<polygon fill="#d13640" stroke="#d13640" points="317.043,-155.826 326.546,-161.297 322.018,-156.323 326.994,-156.819 326.994,-156.819 326.994,-156.819 322.018,-156.323 327.441,-152.342 317.043,-155.826 317.043,-155.826"/>
<polygon fill="#d13640" stroke="#d13640" points="103.479,-46.3261 108.032,-36.35 103.506,-41.3262 103.532,-36.3263 103.532,-36.3263 103.532,-36.3263 103.506,-41.3262 99.0323,-36.3025 103.479,-46.3261 103.479,-46.3261"/>
</g>
<!-- GroupDetail&#45;&gt;PlanConsumption -->
<g id="edge11" class="edge"><title>GroupDetail&#45;&gt;PlanConsumption</title>
<path fill="none" stroke="#f409c7" d="M377.014,-133.745C377.057,-114.542 380.202,-89.2744 394,-72 409.404,-52.7151 432.994,-40.3849 455.809,-32.5285"/>
<polygon fill="#f409c7" stroke="#f409c7" points="377.02,-133.975 372.776,-144.087 377.147,-138.973 377.275,-143.972 377.275,-143.972 377.275,-143.972 377.147,-138.973 381.773,-143.857 377.02,-133.975 377.02,-133.975"/>
<polygon fill="#f409c7" stroke="#f409c7" points="455.987,-32.4715 466.883,-33.7147 460.75,-30.9498 465.513,-29.4281 465.513,-29.4281 465.513,-29.4281 460.75,-30.9498 464.144,-25.1416 455.987,-32.4715 455.987,-32.4715"/>
</g>
<!-- PlanSubscription&#45;&gt;ChannelsSubscribedInPlan -->
<g id="edge12" class="edge"><title>PlanSubscription&#45;&gt;ChannelsSubscribedInPlan</title>
<path fill="none" stroke="#3d2f9a" d="M411.264,-77.0989C348.213,-65.1379 250.883,-46.6742 182.919,-33.7814"/>
<ellipse fill="none" stroke="#3d2f9a" cx="415.226" cy="-77.8503" rx="4.00001" ry="4.00001"/>
<polygon fill="#3d2f9a" stroke="#3d2f9a" points="182.518,-33.7053 173.532,-27.4203 177.605,-32.7734 172.693,-31.8415 172.693,-31.8415 172.693,-31.8415 177.605,-32.7734 171.854,-36.2626 182.518,-33.7053 182.518,-33.7053"/>
</g>
<!-- PlanSubscription&#45;&gt;PlanConsumption -->
<g id="edge13" class="edge"><title>PlanSubscription&#45;&gt;PlanConsumption</title>
<path fill="none" stroke="#41b493" d="M490.604,-65.28C495.371,-58.4704 500.584,-51.0228 505.408,-44.1312"/>
<ellipse fill="none" stroke="#41b493" cx="488.155" cy="-68.778" rx="4.00002" ry="4.00002"/>
<polygon fill="#41b493" stroke="#41b493" points="505.513,-43.9813 514.934,-38.3696 508.38,-39.8852 511.248,-35.789 511.248,-35.789 511.248,-35.789 508.38,-39.8852 507.561,-33.2084 505.513,-43.9813 505.513,-43.9813"/>
</g>
<!-- UserDetail -->
<g id="node9" class="node"><title>UserDetail</title>
<ellipse fill="none" stroke="black" cx="743" cy="-255" rx="48.6179" ry="18"/>
<text text-anchor="middle" x="743" y="-251.3" font-family="Times,serif" font-size="14.00">UserDetail</text>
</g>
</g>
</svg>
